<?xml version="1.0" encoding="utf-8" standalone="no"?>
<!DOCTYPE svg PUBLIC "-//W3C//DTD SVG 1.1//EN"
  "http://www.w3.org/Graphics/SVG/1.1/DTD/svg11.dtd">
<svg xmlns:xlink="http://www.w3.org/1999/xlink" width="216pt" height="216pt" viewBox="0 0 216 216" xmlns="http://www.w3.org/2000/svg" version="1.1">
 <metadata>
  <rdf:RDF xmlns:dc="http://purl.org/dc/elements/1.1/" xmlns:cc="http://creativecommons.org/ns#" xmlns:rdf="http://www.w3.org/1999/02/22-rdf-syntax-ns#">
   <cc:Work>
    <dc:type rdf:resource="http://purl.org/dc/dcmitype/StillImage"/>
    <dc:date>2022-05-11T21:58:29.197433</dc:date>
    <dc:format>image/svg+xml</dc:format>
    <dc:creator>
     <cc:Agent>
      <dc:title>Matplotlib v3.5.1, https://matplotlib.org/</dc:title>
     </cc:Agent>
    </dc:creator>
   </cc:Work>
  </rdf:RDF>
 </metadata>
 <defs>
  <style type="text/css">*{stroke-linejoin: round; stroke-linecap: butt}</style>
 </defs>
 <g id="figure_1">
  <g id="patch_1">
   <path d="M 0 216 
L 216 216 
L 216 0 
L 0 0 
L 0 216 
z
" style="fill: none"/>
  </g>
  <g id="axes_1">
   <g id="patch_2">
    <path d="M 30.938095 176.48737 
L 205.2 176.48737 
L 205.2 10.8 
L 30.938095 10.8 
z
" style="fill: #ffffff"/>
   </g>
   <g id="matplotlib.axis_1">
    <g id="xtick_1">
     <g id="line2d_1">
      <path d="M 127.133493 176.48737 
L 127.133493 10.8 
" clip-path="url(#p2a1e975af7)" style="fill: none; stroke: #b0b0b0; stroke-width: 0.8; stroke-linecap: square"/>
     </g>
     <g id="line2d_2">
      <defs>
       <path id="m2dd2334c3e" d="M 0 0 
L 0 6 
" style="stroke: #000000; stroke-width: 2"/>
      </defs>
      <g>
       <use xlink:href="#m2dd2334c3e" x="127.133493" y="176.48737" style="stroke: #000000; stroke-width: 2"/>
      </g>
     </g>
     <g id="text_1">
      <!-- $\mathdefault{0}$ -->
      <g transform="translate(122.564445 201.324366)scale(0.2 -0.2)">
       <defs>
        <path id="CMR17-30" d="M 2688 2038 
C 2688 2430 2682 3099 2413 3613 
C 2176 4063 1798 4224 1466 4224 
C 1158 4224 768 4082 525 3620 
C 269 3137 243 2539 243 2038 
C 243 1671 250 1112 448 623 
C 723 -39 1216 -128 1466 -128 
C 1760 -128 2208 -7 2470 604 
C 2662 1048 2688 1568 2688 2038 
z
M 1466 -26 
C 1056 -26 813 328 723 816 
C 653 1196 653 1749 653 2109 
C 653 2604 653 3015 736 3407 
C 858 3954 1216 4121 1466 4121 
C 1728 4121 2067 3947 2189 3420 
C 2272 3054 2278 2623 2278 2109 
C 2278 1691 2278 1176 2202 797 
C 2067 96 1690 -26 1466 -26 
z
" transform="scale(0.015625)"/>
       </defs>
       <use xlink:href="#CMR17-30" transform="scale(0.996264)"/>
      </g>
     </g>
    </g>
   </g>
   <g id="matplotlib.axis_2">
    <g id="ytick_1">
     <g id="line2d_3">
      <path d="M 30.938095 93.643685 
L 205.2 93.643685 
" clip-path="url(#p2a1e975af7)" style="fill: none; stroke: #b0b0b0; stroke-width: 0.8; stroke-linecap: square"/>
     </g>
     <g id="line2d_4">
      <defs>
       <path id="m7cf5318bac" d="M 0 0 
L -6 0 
" style="stroke: #000000; stroke-width: 2"/>
      </defs>
      <g>
       <use xlink:href="#m7cf5318bac" x="30.938095" y="93.643685" style="stroke: #000000; stroke-width: 2"/>
      </g>
     </g>
     <g id="text_2">
      <!-- $\mathdefault{0}$ -->
      <g transform="translate(10.8 100.562183)scale(0.2 -0.2)">
       <use xlink:href="#CMR17-30" transform="scale(0.996264)"/>
      </g>
     </g>
    </g>
   </g>
   <g id="PathCollection_1">
    <defs>
     <path id="me4f474294f" d="M 0 1.118034 
C 0.296506 1.118034 0.580908 1.000231 0.790569 0.790569 
C 1.000231 0.580908 1.118034 0.296506 1.118034 0 
C 1.118034 -0.296506 1.000231 -0.580908 0.790569 -0.790569 
C 0.580908 -1.000231 0.296506 -1.118034 0 -1.118034 
C -0.296506 -1.118034 -0.580908 -1.000231 -0.790569 -0.790569 
C -1.000231 -0.580908 -1.118034 -0.296506 -1.118034 0 
C -1.118034 0.296506 -1.000231 0.580908 -0.790569 0.790569 
C -0.580908 1.000231 -0.296506 1.118034 0 1.118034 
z
" style="stroke: #1b9e77"/>
    </defs>
    <g clip-path="url(#p2a1e975af7)">
     <use xlink:href="#me4f474294f" x="40.761575" y="93.643685" style="fill: #1b9e77; stroke: #1b9e77"/>
    </g>
   </g>
   <g id="PathCollection_2">
    <defs>
     <path id="md49be004c6" d="M 0 1.224745 
C 0.324806 1.224745 0.636353 1.095698 0.866025 0.866025 
C 1.095698 0.636353 1.224745 0.324806 1.224745 0 
C 1.224745 -0.324806 1.095698 -0.636353 0.866025 -0.866025 
C 0.636353 -1.095698 0.324806 -1.224745 0 -1.224745 
C -0.324806 -1.224745 -0.636353 -1.095698 -0.866025 -0.866025 
C -1.095698 -0.636353 -1.224745 -0.324806 -1.224745 0 
C -1.224745 0.324806 -1.095698 0.636353 -0.866025 0.866025 
C -0.636353 1.095698 -0.324806 1.224745 0 1.224745 
z
" style="stroke: #1b9e77"/>
    </defs>
    <g clip-path="url(#p2a1e975af7)">
     <use xlink:href="#md49be004c6" x="45.875982" y="120.696775" style="fill: #1b9e77; stroke: #1b9e77"/>
    </g>
   </g>
   <g id="PathCollection_3">
    <defs>
     <path id="m0cb61f6013" d="M 0 1.322876 
C 0.350831 1.322876 0.68734 1.183489 0.935414 0.935414 
C 1.183489 0.68734 1.322876 0.350831 1.322876 0 
C 1.322876 -0.350831 1.183489 -0.68734 0.935414 -0.935414 
C 0.68734 -1.183489 0.350831 -1.322876 0 -1.322876 
C -0.350831 -1.322876 -0.68734 -1.183489 -0.935414 -0.935414 
C -1.183489 -0.68734 -1.322876 -0.350831 -1.322876 0 
C -1.322876 0.350831 -1.183489 0.68734 -0.935414 0.935414 
C -0.68734 1.183489 -0.350831 1.322876 0 1.322876 
z
" style="stroke: #1b9e77"/>
    </defs>
    <g clip-path="url(#p2a1e975af7)">
     <use xlink:href="#m0cb61f6013" x="60.001208" y="143.397181" style="fill: #1b9e77; stroke: #1b9e77"/>
    </g>
   </g>
   <g id="PathCollection_4">
    <defs>
     <path id="m3f7dc81302" d="M 0 1.414214 
C 0.375054 1.414214 0.734797 1.265203 1 1 
C 1.265203 0.734797 1.414214 0.375054 1.414214 0 
C 1.414214 -0.375054 1.265203 -0.734797 1 -1 
C 0.734797 -1.265203 0.375054 -1.414214 0 -1.414214 
C -0.375054 -1.414214 -0.734797 -1.265203 -1 -1 
C -1.265203 -0.734797 -1.414214 -0.375054 -1.414214 0 
C -1.414214 0.375054 -1.265203 0.734797 -1 1 
C -0.734797 1.265203 -0.375054 1.414214 0 1.414214 
z
" style="stroke: #1b9e77"/>
    </defs>
    <g clip-path="url(#p2a1e975af7)">
     <use xlink:href="#m3f7dc81302" x="80.021738" y="158.804911" style="fill: #1b9e77; stroke: #1b9e77"/>
    </g>
   </g>
   <g id="PathCollection_5">
    <defs>
     <path id="m1e9650c23f" d="M 0 1.5 
C 0.397805 1.5 0.77937 1.341951 1.06066 1.06066 
C 1.341951 0.77937 1.5 0.397805 1.5 0 
C 1.5 -0.397805 1.341951 -0.77937 1.06066 -1.06066 
C 0.77937 -1.341951 0.397805 -1.5 0 -1.5 
C -0.397805 -1.5 -0.77937 -1.341951 -1.06066 -1.06066 
C -1.341951 -0.77937 -1.5 -0.397805 -1.5 0 
C -1.5 0.397805 -1.341951 0.77937 -1.06066 1.06066 
C -0.77937 1.341951 -0.397805 1.5 0 1.5 
z
" style="stroke: #1b9e77"/>
    </defs>
    <g clip-path="url(#p2a1e975af7)">
     <use xlink:href="#m1e9650c23f" x="102.188087" y="166.053393" style="fill: #1b9e77; stroke: #1b9e77"/>
    </g>
   </g>
   <g id="PathCollection_6">
    <defs>
     <path id="mcbc5727a7e" d="M 0 1.581139 
C 0.419323 1.581139 0.821528 1.41454 1.118034 1.118034 
C 1.41454 0.821528 1.581139 0.419323 1.581139 0 
C 1.581139 -0.419323 1.41454 -0.821528 1.118034 -1.118034 
C 0.821528 -1.41454 0.419323 -1.581139 0 -1.581139 
C -0.419323 -1.581139 -0.821528 -1.41454 -1.118034 -1.118034 
C -1.41454 -0.821528 -1.581139 -0.419323 -1.581139 0 
C -1.581139 0.419323 -1.41454 0.821528 -1.118034 1.118034 
C -0.821528 1.41454 -0.419323 1.581139 0 1.581139 
z
" style="stroke: #1b9e77"/>
    </defs>
    <g clip-path="url(#p2a1e975af7)">
     <use xlink:href="#mcbc5727a7e" x="123.342132" y="166.057176" style="fill: #1b9e77; stroke: #1b9e77"/>
    </g>
   </g>
   <g id="PathCollection_7">
    <defs>
     <path id="m4e9b43ff31" d="M 0 1.658312 
C 0.43979 1.658312 0.861626 1.483582 1.172604 1.172604 
C 1.483582 0.861626 1.658312 0.43979 1.658312 0 
C 1.658312 -0.43979 1.483582 -0.861626 1.172604 -1.172604 
C 0.861626 -1.483582 0.43979 -1.658312 0 -1.658312 
C -0.43979 -1.658312 -0.861626 -1.483582 -1.172604 -1.172604 
C -1.483582 -0.861626 -1.658312 -0.43979 -1.658312 0 
C -1.658312 0.43979 -1.483582 0.861626 -1.172604 1.172604 
C -0.861626 1.483582 -0.43979 1.658312 0 1.658312 
z
" style="stroke: #1b9e77"/>
    </defs>
    <g clip-path="url(#p2a1e975af7)">
     <use xlink:href="#m4e9b43ff31" x="141.551096" y="160.664871" style="fill: #1b9e77; stroke: #1b9e77"/>
    </g>
   </g>
   <g id="PathCollection_8">
    <defs>
     <path id="md5578546c1" d="M 0 1.732051 
C 0.459345 1.732051 0.899939 1.549551 1.224745 1.224745 
C 1.549551 0.899939 1.732051 0.459345 1.732051 0 
C 1.732051 -0.459345 1.549551 -0.899939 1.224745 -1.224745 
C 0.899939 -1.549551 0.459345 -1.732051 0 -1.732051 
C -0.459345 -1.732051 -0.899939 -1.549551 -1.224745 -1.224745 
C -1.549551 -0.899939 -1.732051 -0.459345 -1.732051 0 
C -1.732051 0.459345 -1.549551 0.899939 -1.224745 1.224745 
C -0.899939 1.549551 -0.459345 1.732051 0 1.732051 
z
" style="stroke: #1b9e77"/>
    </defs>
    <g clip-path="url(#p2a1e975af7)">
     <use xlink:href="#md5578546c1" x="156.077422" y="151.822848" style="fill: #1b9e77; stroke: #1b9e77"/>
    </g>
   </g>
   <g id="PathCollection_9">
    <defs>
     <path id="m9c0c1d07da" d="M 0 1.802776 
C 0.478102 1.802776 0.936686 1.612824 1.274755 1.274755 
C 1.612824 0.936686 1.802776 0.478102 1.802776 0 
C 1.802776 -0.478102 1.612824 -0.936686 1.274755 -1.274755 
C 0.936686 -1.612824 0.478102 -1.802776 0 -1.802776 
C -0.478102 -1.802776 -0.936686 -1.612824 -1.274755 -1.274755 
C -1.612824 -0.936686 -1.802776 -0.478102 -1.802776 0 
C -1.802776 0.478102 -1.612824 0.936686 -1.274755 1.274755 
C -0.936686 1.612824 -0.478102 1.802776 0 1.802776 
z
" style="stroke: #1b9e77"/>
    </defs>
    <g clip-path="url(#p2a1e975af7)">
     <use xlink:href="#m9c0c1d07da" x="166.993104" y="141.084012" style="fill: #1b9e77; stroke: #1b9e77"/>
    </g>
   </g>
   <g id="PathCollection_10">
    <defs>
     <path id="m08a78e30a6" d="M 0 1.870829 
C 0.49615 1.870829 0.972045 1.673706 1.322876 1.322876 
C 1.673706 0.972045 1.870829 0.49615 1.870829 0 
C 1.870829 -0.49615 1.673706 -0.972045 1.322876 -1.322876 
C 0.972045 -1.673706 0.49615 -1.870829 0 -1.870829 
C -0.49615 -1.870829 -0.972045 -1.673706 -1.322876 -1.322876 
C -1.673706 -0.972045 -1.870829 -0.49615 -1.870829 0 
C -1.870829 0.49615 -1.673706 0.972045 -1.322876 1.322876 
C -0.972045 1.673706 -0.49615 1.870829 0 1.870829 
z
" style="stroke: #1b9e77"/>
    </defs>
    <g clip-path="url(#p2a1e975af7)">
     <use xlink:href="#m08a78e30a6" x="174.746257" y="129.472673" style="fill: #1b9e77; stroke: #1b9e77"/>
    </g>
   </g>
   <g id="PathCollection_11">
    <defs>
     <path id="m1f32a2e3c4" d="M 0 1.936492 
C 0.513564 1.936492 1.006162 1.732451 1.369306 1.369306 
C 1.732451 1.006162 1.936492 0.513564 1.936492 0 
C 1.936492 -0.513564 1.732451 -1.006162 1.369306 -1.369306 
C 1.006162 -1.732451 0.513564 -1.936492 0 -1.936492 
C -0.513564 -1.936492 -1.006162 -1.732451 -1.369306 -1.369306 
C -1.732451 -1.006162 -1.936492 -0.513564 -1.936492 0 
C -1.936492 0.513564 -1.732451 1.006162 -1.369306 1.369306 
C -1.006162 1.732451 -0.513564 1.936492 0 1.936492 
z
" style="stroke: #1b9e77"/>
    </defs>
    <g clip-path="url(#p2a1e975af7)">
     <use xlink:href="#m1f32a2e3c4" x="179.851114" y="117.557886" style="fill: #1b9e77; stroke: #1b9e77"/>
    </g>
   </g>
   <g id="PathCollection_12">
    <defs>
     <path id="m5d393760ab" d="M 0 2 
C 0.530406 2 1.03916 1.789267 1.414214 1.414214 
C 1.789267 1.03916 2 0.530406 2 0 
C 2 -0.530406 1.789267 -1.03916 1.414214 -1.414214 
C 1.03916 -1.789267 0.530406 -2 0 -2 
C -0.530406 -2 -1.03916 -1.789267 -1.414214 -1.414214 
C -1.789267 -1.03916 -2 -0.530406 -2 0 
C -2 0.530406 -1.789267 1.03916 -1.414214 1.414214 
C -1.03916 1.789267 -0.530406 2 0 2 
z
" style="stroke: #1b9e77"/>
    </defs>
    <g clip-path="url(#p2a1e975af7)">
     <use xlink:href="#m5d393760ab" x="182.734487" y="105.59254" style="fill: #1b9e77; stroke: #1b9e77"/>
    </g>
   </g>
   <g id="PathCollection_13">
    <defs>
     <path id="mec563482da" d="M 0 2.061553 
C 0.54673 2.061553 1.071141 1.844335 1.457738 1.457738 
C 1.844335 1.071141 2.061553 0.54673 2.061553 0 
C 2.061553 -0.54673 1.844335 -1.071141 1.457738 -1.457738 
C 1.071141 -1.844335 0.54673 -2.061553 0 -2.061553 
C -0.54673 -2.061553 -1.071141 -1.844335 -1.457738 -1.457738 
C -1.844335 -1.071141 -2.061553 -0.54673 -2.061553 0 
C -2.061553 0.54673 -1.844335 1.071141 -1.457738 1.457738 
C -1.071141 1.844335 -0.54673 2.061553 0 2.061553 
z
" style="stroke: #1b9e77"/>
    </defs>
    <g clip-path="url(#p2a1e975af7)">
     <use xlink:href="#mec563482da" x="183.665982" y="93.643681" style="fill: #1b9e77; stroke: #1b9e77"/>
    </g>
   </g>
   <g id="PathCollection_14">
    <defs>
     <path id="m464f92ed5e" d="M 0 2.12132 
C 0.562581 2.12132 1.102195 1.897805 1.5 1.5 
C 1.897805 1.102195 2.12132 0.562581 2.12132 0 
C 2.12132 -0.562581 1.897805 -1.102195 1.5 -1.5 
C 1.102195 -1.897805 0.562581 -2.12132 0 -2.12132 
C -0.562581 -2.12132 -1.102195 -1.897805 -1.5 -1.5 
C -1.897805 -1.102195 -2.12132 -0.562581 -2.12132 0 
C -2.12132 0.562581 -1.897805 1.102195 -1.5 1.5 
C -1.102195 1.897805 -0.562581 2.12132 0 2.12132 
z
" style="stroke: #1b9e77"/>
    </defs>
    <g clip-path="url(#p2a1e975af7)">
     <use xlink:href="#m464f92ed5e" x="182.734487" y="81.694832" style="fill: #1b9e77; stroke: #1b9e77"/>
    </g>
   </g>
   <g id="PathCollection_15">
    <defs>
     <path id="m63d382df4d" d="M 0 2.179449 
C 0.577997 2.179449 1.132398 1.949809 1.541104 1.541104 
C 1.949809 1.132398 2.179449 0.577997 2.179449 0 
C 2.179449 -0.577997 1.949809 -1.132398 1.541104 -1.541104 
C 1.132398 -1.949809 0.577997 -2.179449 0 -2.179449 
C -0.577997 -2.179449 -1.132398 -1.949809 -1.541104 -1.541104 
C -1.949809 -1.132398 -2.179449 -0.577997 -2.179449 0 
C -2.179449 0.577997 -1.949809 1.132398 -1.541104 1.541104 
C -1.132398 1.949809 -0.577997 2.179449 0 2.179449 
z
" style="stroke: #1b9e77"/>
    </defs>
    <g clip-path="url(#p2a1e975af7)">
     <use xlink:href="#m63d382df4d" x="179.851114" y="69.729489" style="fill: #1b9e77; stroke: #1b9e77"/>
    </g>
   </g>
   <g id="PathCollection_16">
    <defs>
     <path id="mf4f1c3dbbd" d="M 0 2.236068 
C 0.593012 2.236068 1.161816 2.000462 1.581139 1.581139 
C 2.000462 1.161816 2.236068 0.593012 2.236068 0 
C 2.236068 -0.593012 2.000462 -1.161816 1.581139 -1.581139 
C 1.161816 -2.000462 0.593012 -2.236068 0 -2.236068 
C -0.593012 -2.236068 -1.161816 -2.000462 -1.581139 -1.581139 
C -2.000462 -1.161816 -2.236068 -0.593012 -2.236068 0 
C -2.236068 0.593012 -2.000462 1.161816 -1.581139 1.581139 
C -1.161816 2.000462 -0.593012 2.236068 0 2.236068 
z
" style="stroke: #1b9e77"/>
    </defs>
    <g clip-path="url(#p2a1e975af7)">
     <use xlink:href="#mf4f1c3dbbd" x="174.746257" y="57.814702" style="fill: #1b9e77; stroke: #1b9e77"/>
    </g>
   </g>
   <g id="PathCollection_17">
    <defs>
     <path id="m3ff01fab8d" d="M 0 2.291288 
C 0.607657 2.291288 1.190507 2.049863 1.620185 1.620185 
C 2.049863 1.190507 2.291288 0.607657 2.291288 0 
C 2.291288 -0.607657 2.049863 -1.190507 1.620185 -1.620185 
C 1.190507 -2.049863 0.607657 -2.291288 0 -2.291288 
C -0.607657 -2.291288 -1.190507 -2.049863 -1.620185 -1.620185 
C -2.049863 -1.190507 -2.291288 -0.607657 -2.291288 0 
C -2.291288 0.607657 -2.049863 1.190507 -1.620185 1.620185 
C -1.190507 2.049863 -0.607657 2.291288 0 2.291288 
z
" style="stroke: #1b9e77"/>
    </defs>
    <g clip-path="url(#p2a1e975af7)">
     <use xlink:href="#m3ff01fab8d" x="166.993104" y="46.203352" style="fill: #1b9e77; stroke: #1b9e77"/>
    </g>
   </g>
   <g id="PathCollection_18">
    <defs>
     <path id="mb8f4cf8dbb" d="M 0 2.345208 
C 0.621956 2.345208 1.218523 2.098102 1.658312 1.658312 
C 2.098102 1.218523 2.345208 0.621956 2.345208 0 
C 2.345208 -0.621956 2.098102 -1.218523 1.658312 -1.658312 
C 1.218523 -2.098102 0.621956 -2.345208 0 -2.345208 
C -0.621956 -2.345208 -1.218523 -2.098102 -1.658312 -1.658312 
C -2.098102 -1.218523 -2.345208 -0.621956 -2.345208 0 
C -2.345208 0.621956 -2.098102 1.218523 -1.658312 1.658312 
C -1.218523 2.098102 -0.621956 2.345208 0 2.345208 
z
" style="stroke: #1b9e77"/>
    </defs>
    <g clip-path="url(#p2a1e975af7)">
     <use xlink:href="#mb8f4cf8dbb" x="156.077422" y="35.464522" style="fill: #1b9e77; stroke: #1b9e77"/>
    </g>
   </g>
   <g id="PathCollection_19">
    <defs>
     <path id="maa1e13c6e6" d="M 0 2.397916 
C 0.635935 2.397916 1.245909 2.145256 1.695582 1.695582 
C 2.145256 1.245909 2.397916 0.635935 2.397916 0 
C 2.397916 -0.635935 2.145256 -1.245909 1.695582 -1.695582 
C 1.245909 -2.145256 0.635935 -2.397916 0 -2.397916 
C -0.635935 -2.397916 -1.245909 -2.145256 -1.695582 -1.695582 
C -2.145256 -1.245909 -2.397916 -0.635935 -2.397916 0 
C -2.397916 0.635935 -2.145256 1.245909 -1.695582 1.695582 
C -1.245909 2.145256 -0.635935 2.397916 0 2.397916 
z
" style="stroke: #1b9e77"/>
    </defs>
    <g clip-path="url(#p2a1e975af7)">
     <use xlink:href="#maa1e13c6e6" x="141.551096" y="26.622499" style="fill: #1b9e77; stroke: #1b9e77"/>
    </g>
   </g>
   <g id="PathCollection_20">
    <defs>
     <path id="m68620ffb1b" d="M 0 2.44949 
C 0.649612 2.44949 1.272706 2.191396 1.732051 1.732051 
C 2.191396 1.272706 2.44949 0.649612 2.44949 0 
C 2.44949 -0.649612 2.191396 -1.272706 1.732051 -1.732051 
C 1.272706 -2.191396 0.649612 -2.44949 0 -2.44949 
C -0.649612 -2.44949 -1.272706 -2.191396 -1.732051 -1.732051 
C -2.191396 -1.272706 -2.44949 -0.649612 -2.44949 0 
C -2.44949 0.649612 -2.191396 1.272706 -1.732051 1.732051 
C -1.272706 2.191396 -0.649612 2.44949 0 2.44949 
z
" style="stroke: #1b9e77"/>
    </defs>
    <g clip-path="url(#p2a1e975af7)">
     <use xlink:href="#m68620ffb1b" x="123.342132" y="21.230183" style="fill: #1b9e77; stroke: #1b9e77"/>
    </g>
   </g>
   <g id="PathCollection_21">
    <defs>
     <path id="ma90fbe4824" d="M 0 2.5 
C 0.663008 2.5 1.29895 2.236584 1.767767 1.767767 
C 2.236584 1.29895 2.5 0.663008 2.5 0 
C 2.5 -0.663008 2.236584 -1.29895 1.767767 -1.767767 
C 1.29895 -2.236584 0.663008 -2.5 0 -2.5 
C -0.663008 -2.5 -1.29895 -2.236584 -1.767767 -1.767767 
C -2.236584 -1.29895 -2.5 -0.663008 -2.5 0 
C -2.5 0.663008 -2.236584 1.29895 -1.767767 1.767767 
C -1.29895 2.236584 -0.663008 2.5 0 2.5 
z
" style="stroke: #1b9e77"/>
    </defs>
    <g clip-path="url(#p2a1e975af7)">
     <use xlink:href="#ma90fbe4824" x="102.188087" y="21.233976" style="fill: #1b9e77; stroke: #1b9e77"/>
    </g>
   </g>
   <g id="PathCollection_22">
    <defs>
     <path id="ma2541f1364" d="M 0 2.54951 
C 0.676138 2.54951 1.324674 2.280877 1.802776 1.802776 
C 2.280877 1.324674 2.54951 0.676138 2.54951 0 
C 2.54951 -0.676138 2.280877 -1.324674 1.802776 -1.802776 
C 1.324674 -2.280877 0.676138 -2.54951 0 -2.54951 
C -0.676138 -2.54951 -1.324674 -2.280877 -1.802776 -1.802776 
C -2.280877 -1.324674 -2.54951 -0.676138 -2.54951 0 
C -2.54951 0.676138 -2.280877 1.324674 -1.802776 1.802776 
C -1.324674 2.280877 -0.676138 2.54951 0 2.54951 
z
" style="stroke: #1b9e77"/>
    </defs>
    <g clip-path="url(#p2a1e975af7)">
     <use xlink:href="#ma2541f1364" x="80.021738" y="28.482459" style="fill: #1b9e77; stroke: #1b9e77"/>
    </g>
   </g>
   <g id="PathCollection_23">
    <defs>
     <path id="m35c058f632" d="M 0 2.598076 
C 0.689018 2.598076 1.349908 2.324327 1.837117 1.837117 
C 2.324327 1.349908 2.598076 0.689018 2.598076 0 
C 2.598076 -0.689018 2.324327 -1.349908 1.837117 -1.837117 
C 1.349908 -2.324327 0.689018 -2.598076 0 -2.598076 
C -0.689018 -2.598076 -1.349908 -2.324327 -1.837117 -1.837117 
C -2.324327 -1.349908 -2.598076 -0.689018 -2.598076 0 
C -2.598076 0.689018 -2.324327 1.349908 -1.837117 1.837117 
C -1.349908 2.324327 -0.689018 2.598076 0 2.598076 
z
" style="stroke: #1b9e77"/>
    </defs>
    <g clip-path="url(#p2a1e975af7)">
     <use xlink:href="#m35c058f632" x="60.001208" y="43.890171" style="fill: #1b9e77; stroke: #1b9e77"/>
    </g>
   </g>
   <g id="PathCollection_24">
    <defs>
     <path id="m823aed1da7" d="M 0 2.645751 
C 0.701661 2.645751 1.374679 2.366978 1.870829 1.870829 
C 2.366978 1.374679 2.645751 0.701661 2.645751 0 
C 2.645751 -0.701661 2.366978 -1.374679 1.870829 -1.870829 
C 1.374679 -2.366978 0.701661 -2.645751 0 -2.645751 
C -0.701661 -2.645751 -1.374679 -2.366978 -1.870829 -1.870829 
C -2.366978 -1.374679 -2.645751 -0.701661 -2.645751 0 
C -2.645751 0.701661 -2.366978 1.374679 -1.870829 1.870829 
C -1.374679 2.366978 -0.701661 2.645751 0 2.645751 
z
" style="stroke: #1b9e77"/>
    </defs>
    <g clip-path="url(#p2a1e975af7)">
     <use xlink:href="#m823aed1da7" x="45.875982" y="66.590618" style="fill: #1b9e77; stroke: #1b9e77"/>
    </g>
   </g>
   <g id="PathCollection_25">
    <defs>
     <path id="m0da80c2894" d="M 0 1.118034 
C 0.296506 1.118034 0.580908 1.000231 0.790569 0.790569 
C 1.000231 0.580908 1.118034 0.296506 1.118034 0 
C 1.118034 -0.296506 1.000231 -0.580908 0.790569 -0.790569 
C 0.580908 -1.000231 0.296506 -1.118034 0 -1.118034 
C -0.296506 -1.118034 -0.580908 -1.000231 -0.790569 -0.790569 
C -1.000231 -0.580908 -1.118034 -0.296506 -1.118034 0 
C -1.118034 0.296506 -1.000231 0.580908 -0.790569 0.790569 
C -0.580908 1.000231 -0.296506 1.118034 0 1.118034 
z
" style="stroke: #d95f02"/>
    </defs>
    <g clip-path="url(#p2a1e975af7)">
     <use xlink:href="#m0da80c2894" x="177.127152" y="93.643685" style="fill: #d95f02; stroke: #d95f02"/>
    </g>
   </g>
   <g id="PathCollection_26">
    <defs>
     <path id="m7f0c33f384" d="M 0 1.224745 
C 0.324806 1.224745 0.636353 1.095698 0.866025 0.866025 
C 1.095698 0.636353 1.224745 0.324806 1.224745 0 
C 1.224745 -0.324806 1.095698 -0.636353 0.866025 -0.866025 
C 0.636353 -1.095698 0.324806 -1.224745 0 -1.224745 
C -0.324806 -1.224745 -0.636353 -1.095698 -0.866025 -0.866025 
C -1.095698 -0.636353 -1.224745 -0.324806 -1.224745 0 
C -1.224745 0.324806 -1.095698 0.636353 -0.866025 0.866025 
C -0.636353 1.095698 -0.324806 1.224745 0 1.224745 
z
" style="stroke: #d95f02"/>
    </defs>
    <g clip-path="url(#p2a1e975af7)">
     <use xlink:href="#m7f0c33f384" x="174.930646" y="79.507786" style="fill: #d95f02; stroke: #d95f02"/>
    </g>
   </g>
   <g id="PathCollection_27">
    <defs>
     <path id="mfa4c6ab1c7" d="M 0 1.322876 
C 0.350831 1.322876 0.68734 1.183489 0.935414 0.935414 
C 1.183489 0.68734 1.322876 0.350831 1.322876 0 
C 1.322876 -0.350831 1.183489 -0.68734 0.935414 -0.935414 
C 0.68734 -1.183489 0.350831 -1.322876 0 -1.322876 
C -0.350831 -1.322876 -0.68734 -1.183489 -0.935414 -0.935414 
C -1.183489 -0.68734 -1.322876 -0.350831 -1.322876 0 
C -1.322876 0.350831 -1.183489 0.68734 -0.935414 0.935414 
C -0.68734 1.183489 -0.350831 1.322876 0 1.322876 
z
" style="stroke: #d95f02"/>
    </defs>
    <g clip-path="url(#p2a1e975af7)">
     <use xlink:href="#mfa4c6ab1c7" x="168.615139" y="66.822889" style="fill: #d95f02; stroke: #d95f02"/>
    </g>
   </g>
   <g id="PathCollection_28">
    <defs>
     <path id="m7c2ff802fb" d="M 0 1.414214 
C 0.375054 1.414214 0.734797 1.265203 1 1 
C 1.265203 0.734797 1.414214 0.375054 1.414214 0 
C 1.414214 -0.375054 1.265203 -0.734797 1 -1 
C 0.734797 -1.265203 0.375054 -1.414214 0 -1.414214 
C -0.375054 -1.414214 -0.734797 -1.265203 -1 -1 
C -1.265203 -0.734797 -1.414214 -0.375054 -1.414214 0 
C -1.414214 0.375054 -1.265203 0.734797 -1 1 
C -0.734797 1.265203 -0.375054 1.414214 0 1.414214 
z
" style="stroke: #d95f02"/>
    </defs>
    <g clip-path="url(#p2a1e975af7)">
     <use xlink:href="#m7c2ff802fb" x="158.960061" y="56.828992" style="fill: #d95f02; stroke: #d95f02"/>
    </g>
   </g>
   <g id="PathCollection_29">
    <defs>
     <path id="m0df4d55d81" d="M 0 1.5 
C 0.397805 1.5 0.77937 1.341951 1.06066 1.06066 
C 1.341951 0.77937 1.5 0.397805 1.5 0 
C 1.5 -0.397805 1.341951 -0.77937 1.06066 -1.06066 
C 0.77937 -1.341951 0.397805 -1.5 0 -1.5 
C -0.397805 -1.5 -0.77937 -1.341951 -1.06066 -1.06066 
C -1.341951 -0.77937 -1.5 -0.397805 -1.5 0 
C -1.5 0.397805 -1.341951 0.77937 -1.06066 1.06066 
C -0.77937 1.341951 -0.397805 1.5 0 1.5 
z
" style="stroke: #d95f02"/>
    </defs>
    <g clip-path="url(#p2a1e975af7)">
     <use xlink:href="#m0df4d55d81" x="147.133454" y="50.363021" style="fill: #d95f02; stroke: #d95f02"/>
    </g>
   </g>
   <g id="PathCollection_30">
    <defs>
     <path id="m7bafe99910" d="M 0 1.581139 
C 0.419323 1.581139 0.821528 1.41454 1.118034 1.118034 
C 1.41454 0.821528 1.581139 0.419323 1.581139 0 
C 1.581139 -0.419323 1.41454 -0.821528 1.118034 -1.118034 
C 0.821528 -1.41454 0.419323 -1.581139 0 -1.581139 
C -0.419323 -1.581139 -0.821528 -1.41454 -1.118034 -1.118034 
C -1.41454 -0.821528 -1.581139 -0.419323 -1.581139 0 
C -1.581139 0.419323 -1.41454 0.821528 -1.118034 1.118034 
C -0.821528 1.41454 -0.419323 1.581139 0 1.581139 
z
" style="stroke: #d95f02"/>
    </defs>
    <g clip-path="url(#p2a1e975af7)">
     <use xlink:href="#m7bafe99910" x="134.471587" y="47.731078" style="fill: #d95f02; stroke: #d95f02"/>
    </g>
   </g>
   <g id="PathCollection_31">
    <defs>
     <path id="mf029a38f66" d="M 0 1.658312 
C 0.43979 1.658312 0.861626 1.483582 1.172604 1.172604 
C 1.483582 0.861626 1.658312 0.43979 1.658312 0 
C 1.658312 -0.43979 1.483582 -0.861626 1.172604 -1.172604 
C 0.861626 -1.483582 0.43979 -1.658312 0 -1.658312 
C -0.43979 -1.658312 -0.861626 -1.483582 -1.172604 -1.172604 
C -1.483582 -0.861626 -1.658312 -0.43979 -1.658312 0 
C -1.658312 0.43979 -1.483582 0.861626 -1.172604 1.172604 
C -0.861626 1.483582 -0.43979 1.658312 0 1.658312 
z
" style="stroke: #d95f02"/>
    </defs>
    <g clip-path="url(#p2a1e975af7)">
     <use xlink:href="#mf029a38f66" x="122.222575" y="48.706705" style="fill: #d95f02; stroke: #d95f02"/>
    </g>
   </g>
   <g id="PathCollection_32">
    <defs>
     <path id="mc906dc9d1a" d="M 0 1.732051 
C 0.459345 1.732051 0.899939 1.549551 1.224745 1.224745 
C 1.549551 0.899939 1.732051 0.459345 1.732051 0 
C 1.732051 -0.459345 1.549551 -0.899939 1.224745 -1.224745 
C 0.899939 -1.549551 0.459345 -1.732051 0 -1.732051 
C -0.459345 -1.732051 -0.899939 -1.549551 -1.224745 -1.224745 
C -1.549551 -0.899939 -1.732051 -0.459345 -1.732051 0 
C -1.732051 0.459345 -1.549551 0.899939 -1.224745 1.224745 
C -0.899939 1.549551 -0.459345 1.732051 0 1.732051 
z
" style="stroke: #d95f02"/>
    </defs>
    <g clip-path="url(#p2a1e975af7)">
     <use xlink:href="#mc906dc9d1a" x="111.324524" y="52.676136" style="fill: #d95f02; stroke: #d95f02"/>
    </g>
   </g>
   <g id="PathCollection_33">
    <defs>
     <path id="mbb7e4a5c31" d="M 0 1.802776 
C 0.478102 1.802776 0.936686 1.612824 1.274755 1.274755 
C 1.612824 0.936686 1.802776 0.478102 1.802776 0 
C 1.802776 -0.478102 1.612824 -0.936686 1.274755 -1.274755 
C 0.936686 -1.612824 0.478102 -1.802776 0 -1.802776 
C -0.478102 -1.802776 -0.936686 -1.612824 -1.274755 -1.274755 
C -1.612824 -0.936686 -1.802776 -0.478102 -1.802776 0 
C -1.802776 0.478102 -1.612824 0.936686 -1.274755 1.274755 
C -0.936686 1.612824 -0.478102 1.802776 0 1.802776 
z
" style="stroke: #d95f02"/>
    </defs>
    <g clip-path="url(#p2a1e975af7)">
     <use xlink:href="#mbb7e4a5c31" x="102.317379" y="58.86724" style="fill: #d95f02; stroke: #d95f02"/>
    </g>
   </g>
   <g id="PathCollection_34">
    <defs>
     <path id="me431baf1fa" d="M 0 1.870829 
C 0.49615 1.870829 0.972045 1.673706 1.322876 1.322876 
C 1.673706 0.972045 1.870829 0.49615 1.870829 0 
C 1.870829 -0.49615 1.673706 -0.972045 1.322876 -1.322876 
C 0.972045 -1.673706 0.49615 -1.870829 0 -1.870829 
C -0.49615 -1.870829 -0.972045 -1.673706 -1.322876 -1.322876 
C -1.673706 -0.972045 -1.870829 -0.49615 -1.870829 0 
C -1.870829 0.49615 -1.673706 0.972045 -1.322876 1.322876 
C -0.972045 1.673706 -0.49615 1.870829 0 1.870829 
z
" style="stroke: #d95f02"/>
    </defs>
    <g clip-path="url(#p2a1e975af7)">
     <use xlink:href="#me431baf1fa" x="95.398017" y="66.554226" style="fill: #d95f02; stroke: #d95f02"/>
    </g>
   </g>
   <g id="PathCollection_35">
    <defs>
     <path id="m6714edb12c" d="M 0 1.936492 
C 0.513564 1.936492 1.006162 1.732451 1.369306 1.369306 
C 1.732451 1.006162 1.936492 0.513564 1.936492 0 
C 1.936492 -0.513564 1.732451 -1.006162 1.369306 -1.369306 
C 1.006162 -1.732451 0.513564 -1.936492 0 -1.936492 
C -0.513564 -1.936492 -1.006162 -1.732451 -1.369306 -1.369306 
C -1.732451 -1.006162 -1.936492 -0.513564 -1.936492 0 
C -1.936492 0.513564 -1.732451 1.006162 -1.369306 1.369306 
C -1.006162 1.732451 -0.513564 1.936492 0 1.936492 
z
" style="stroke: #d95f02"/>
    </defs>
    <g clip-path="url(#p2a1e975af7)">
     <use xlink:href="#m6714edb12c" x="90.556888" y="75.164646" style="fill: #d95f02; stroke: #d95f02"/>
    </g>
   </g>
   <g id="PathCollection_36">
    <defs>
     <path id="m423125303f" d="M 0 2 
C 0.530406 2 1.03916 1.789267 1.414214 1.414214 
C 1.789267 1.03916 2 0.530406 2 0 
C 2 -0.530406 1.789267 -1.03916 1.414214 -1.414214 
C 1.03916 -1.789267 0.530406 -2 0 -2 
C -0.530406 -2 -1.03916 -1.789267 -1.414214 -1.414214 
C -1.789267 -1.03916 -2 -0.530406 -2 0 
C -2 0.530406 -1.789267 1.03916 -1.414214 1.414214 
C -1.03916 1.789267 -0.530406 2 0 2 
z
" style="stroke: #d95f02"/>
    </defs>
    <g clip-path="url(#p2a1e975af7)">
     <use xlink:href="#m423125303f" x="87.708041" y="84.290379" style="fill: #d95f02; stroke: #d95f02"/>
    </g>
   </g>
   <g id="PathCollection_37">
    <defs>
     <path id="m8cb7eca463" d="M 0 2.061553 
C 0.54673 2.061553 1.071141 1.844335 1.457738 1.457738 
C 1.844335 1.071141 2.061553 0.54673 2.061553 0 
C 2.061553 -0.54673 1.844335 -1.071141 1.457738 -1.457738 
C 1.071141 -1.844335 0.54673 -2.061553 0 -2.061553 
C -0.54673 -2.061553 -1.071141 -1.844335 -1.457738 -1.457738 
C -1.844335 -1.071141 -2.061553 -0.54673 -2.061553 0 
C -2.061553 0.54673 -1.844335 1.071141 -1.457738 1.457738 
C -1.071141 1.844335 -0.54673 2.061553 0 2.061553 
z
" style="stroke: #d95f02"/>
    </defs>
    <g clip-path="url(#p2a1e975af7)">
     <use xlink:href="#m8cb7eca463" x="86.7692" y="93.643688" style="fill: #d95f02; stroke: #d95f02"/>
    </g>
   </g>
   <g id="PathCollection_38">
    <defs>
     <path id="m9056a7efa0" d="M 0 2.12132 
C 0.562581 2.12132 1.102195 1.897805 1.5 1.5 
C 1.897805 1.102195 2.12132 0.562581 2.12132 0 
C 2.12132 -0.562581 1.897805 -1.102195 1.5 -1.5 
C 1.102195 -1.897805 0.562581 -2.12132 0 -2.12132 
C -0.562581 -2.12132 -1.102195 -1.897805 -1.5 -1.5 
C -1.897805 -1.102195 -2.12132 -0.562581 -2.12132 0 
C -2.12132 0.562581 -1.897805 1.102195 -1.5 1.5 
C -1.102195 1.897805 -0.562581 2.12132 0 2.12132 
z
" style="stroke: #d95f02"/>
    </defs>
    <g clip-path="url(#p2a1e975af7)">
     <use xlink:href="#m9056a7efa0" x="87.708041" y="102.99699" style="fill: #d95f02; stroke: #d95f02"/>
    </g>
   </g>
   <g id="PathCollection_39">
    <defs>
     <path id="m0af2cf6025" d="M 0 2.179449 
C 0.577997 2.179449 1.132398 1.949809 1.541104 1.541104 
C 1.949809 1.132398 2.179449 0.577997 2.179449 0 
C 2.179449 -0.577997 1.949809 -1.132398 1.541104 -1.541104 
C 1.132398 -1.949809 0.577997 -2.179449 0 -2.179449 
C -0.577997 -2.179449 -1.132398 -1.949809 -1.541104 -1.541104 
C -1.949809 -1.132398 -2.179449 -0.577997 -2.179449 0 
C -2.179449 0.577997 -1.949809 1.132398 -1.541104 1.541104 
C -1.132398 1.949809 -0.577997 2.179449 0 2.179449 
z
" style="stroke: #d95f02"/>
    </defs>
    <g clip-path="url(#p2a1e975af7)">
     <use xlink:href="#m0af2cf6025" x="90.556888" y="112.12272" style="fill: #d95f02; stroke: #d95f02"/>
    </g>
   </g>
   <g id="PathCollection_40">
    <defs>
     <path id="m3c4890179e" d="M 0 2.236068 
C 0.593012 2.236068 1.161816 2.000462 1.581139 1.581139 
C 2.000462 1.161816 2.236068 0.593012 2.236068 0 
C 2.236068 -0.593012 2.000462 -1.161816 1.581139 -1.581139 
C 1.161816 -2.000462 0.593012 -2.236068 0 -2.236068 
C -0.593012 -2.236068 -1.161816 -2.000462 -1.581139 -1.581139 
C -2.000462 -1.161816 -2.236068 -0.593012 -2.236068 0 
C -2.236068 0.593012 -2.000462 1.161816 -1.581139 1.581139 
C -1.161816 2.000462 -0.593012 2.236068 0 2.236068 
z
" style="stroke: #d95f02"/>
    </defs>
    <g clip-path="url(#p2a1e975af7)">
     <use xlink:href="#m3c4890179e" x="95.398017" y="120.733141" style="fill: #d95f02; stroke: #d95f02"/>
    </g>
   </g>
   <g id="PathCollection_41">
    <defs>
     <path id="m5003e1e1ad" d="M 0 2.291288 
C 0.607657 2.291288 1.190507 2.049863 1.620185 1.620185 
C 2.049863 1.190507 2.291288 0.607657 2.291288 0 
C 2.291288 -0.607657 2.049863 -1.190507 1.620185 -1.620185 
C 1.190507 -2.049863 0.607657 -2.291288 0 -2.291288 
C -0.607657 -2.291288 -1.190507 -2.049863 -1.620185 -1.620185 
C -2.049863 -1.190507 -2.291288 -0.607657 -2.291288 0 
C -2.291288 0.607657 -2.049863 1.190507 -1.620185 1.620185 
C -1.190507 2.049863 -0.607657 2.291288 0 2.291288 
z
" style="stroke: #d95f02"/>
    </defs>
    <g clip-path="url(#p2a1e975af7)">
     <use xlink:href="#m5003e1e1ad" x="102.317379" y="128.42013" style="fill: #d95f02; stroke: #d95f02"/>
    </g>
   </g>
   <g id="PathCollection_42">
    <defs>
     <path id="m6c47112314" d="M 0 2.345208 
C 0.621956 2.345208 1.218523 2.098102 1.658312 1.658312 
C 2.098102 1.218523 2.345208 0.621956 2.345208 0 
C 2.345208 -0.621956 2.098102 -1.218523 1.658312 -1.658312 
C 1.218523 -2.098102 0.621956 -2.345208 0 -2.345208 
C -0.621956 -2.345208 -1.218523 -2.098102 -1.658312 -1.658312 
C -2.098102 -1.218523 -2.345208 -0.621956 -2.345208 0 
C -2.345208 0.621956 -2.098102 1.218523 -1.658312 1.658312 
C -1.218523 2.098102 -0.621956 2.345208 0 2.345208 
z
" style="stroke: #d95f02"/>
    </defs>
    <g clip-path="url(#p2a1e975af7)">
     <use xlink:href="#m6c47112314" x="111.324524" y="134.611239" style="fill: #d95f02; stroke: #d95f02"/>
    </g>
   </g>
   <g id="PathCollection_43">
    <defs>
     <path id="m7947865b95" d="M 0 2.397916 
C 0.635935 2.397916 1.245909 2.145256 1.695582 1.695582 
C 2.145256 1.245909 2.397916 0.635935 2.397916 0 
C 2.397916 -0.635935 2.145256 -1.245909 1.695582 -1.695582 
C 1.245909 -2.145256 0.635935 -2.397916 0 -2.397916 
C -0.635935 -2.397916 -1.245909 -2.145256 -1.695582 -1.695582 
C -2.145256 -1.245909 -2.397916 -0.635935 -2.397916 0 
C -2.397916 0.635935 -2.145256 1.245909 -1.695582 1.695582 
C -1.245909 2.145256 -0.635935 2.397916 0 2.397916 
z
" style="stroke: #d95f02"/>
    </defs>
    <g clip-path="url(#p2a1e975af7)">
     <use xlink:href="#m7947865b95" x="122.222575" y="138.580665" style="fill: #d95f02; stroke: #d95f02"/>
    </g>
   </g>
   <g id="PathCollection_44">
    <defs>
     <path id="m00e80bade8" d="M 0 2.44949 
C 0.649612 2.44949 1.272706 2.191396 1.732051 1.732051 
C 2.191396 1.272706 2.44949 0.649612 2.44949 0 
C 2.44949 -0.649612 2.191396 -1.272706 1.732051 -1.732051 
C 1.272706 -2.191396 0.649612 -2.44949 0 -2.44949 
C -0.649612 -2.44949 -1.272706 -2.191396 -1.732051 -1.732051 
C -2.191396 -1.272706 -2.44949 -0.649612 -2.44949 0 
C -2.44949 0.649612 -2.191396 1.272706 -1.732051 1.732051 
C -1.272706 2.191396 -0.649612 2.44949 0 2.44949 
z
" style="stroke: #d95f02"/>
    </defs>
    <g clip-path="url(#p2a1e975af7)">
     <use xlink:href="#m00e80bade8" x="134.471587" y="139.556308" style="fill: #d95f02; stroke: #d95f02"/>
    </g>
   </g>
   <g id="PathCollection_45">
    <defs>
     <path id="m6c1833e916" d="M 0 2.5 
C 0.663008 2.5 1.29895 2.236584 1.767767 1.767767 
C 2.236584 1.29895 2.5 0.663008 2.5 0 
C 2.5 -0.663008 2.236584 -1.29895 1.767767 -1.767767 
C 1.29895 -2.236584 0.663008 -2.5 0 -2.5 
C -0.663008 -2.5 -1.29895 -2.236584 -1.767767 -1.767767 
C -2.236584 -1.29895 -2.5 -0.663008 -2.5 0 
C -2.5 0.663008 -2.236584 1.29895 -1.767767 1.767767 
C -1.29895 2.236584 -0.663008 2.5 0 2.5 
z
" style="stroke: #d95f02"/>
    </defs>
    <g clip-path="url(#p2a1e975af7)">
     <use xlink:href="#m6c1833e916" x="147.133454" y="136.924349" style="fill: #d95f02; stroke: #d95f02"/>
    </g>
   </g>
   <g id="PathCollection_46">
    <defs>
     <path id="m186da7f9db" d="M 0 2.54951 
C 0.676138 2.54951 1.324674 2.280877 1.802776 1.802776 
C 2.280877 1.324674 2.54951 0.676138 2.54951 0 
C 2.54951 -0.676138 2.280877 -1.324674 1.802776 -1.802776 
C 1.324674 -2.280877 0.676138 -2.54951 0 -2.54951 
C -0.676138 -2.54951 -1.324674 -2.280877 -1.802776 -1.802776 
C -2.280877 -1.324674 -2.54951 -0.676138 -2.54951 0 
C -2.54951 0.676138 -2.280877 1.324674 -1.802776 1.802776 
C -1.324674 2.280877 -0.676138 2.54951 0 2.54951 
z
" style="stroke: #d95f02"/>
    </defs>
    <g clip-path="url(#p2a1e975af7)">
     <use xlink:href="#m186da7f9db" x="158.960061" y="130.458378" style="fill: #d95f02; stroke: #d95f02"/>
    </g>
   </g>
   <g id="PathCollection_47">
    <defs>
     <path id="m1f4013f94b" d="M 0 2.598076 
C 0.689018 2.598076 1.349908 2.324327 1.837117 1.837117 
C 2.324327 1.349908 2.598076 0.689018 2.598076 0 
C 2.598076 -0.689018 2.324327 -1.349908 1.837117 -1.837117 
C 1.349908 -2.324327 0.689018 -2.598076 0 -2.598076 
C -0.689018 -2.598076 -1.349908 -2.324327 -1.837117 -1.837117 
C -2.324327 -1.349908 -2.598076 -0.689018 -2.598076 0 
C -2.598076 0.689018 -2.324327 1.349908 -1.837117 1.837117 
C -1.349908 2.324327 -0.689018 2.598076 0 2.598076 
z
" style="stroke: #d95f02"/>
    </defs>
    <g clip-path="url(#p2a1e975af7)">
     <use xlink:href="#m1f4013f94b" x="168.615139" y="120.464495" style="fill: #d95f02; stroke: #d95f02"/>
    </g>
   </g>
   <g id="PathCollection_48">
    <defs>
     <path id="m7b7d253a6c" d="M 0 2.645751 
C 0.701661 2.645751 1.374679 2.366978 1.870829 1.870829 
C 2.366978 1.374679 2.645751 0.701661 2.645751 0 
C 2.645751 -0.701661 2.366978 -1.374679 1.870829 -1.870829 
C 1.374679 -2.366978 0.701661 -2.645751 0 -2.645751 
C -0.701661 -2.645751 -1.374679 -2.366978 -1.870829 -1.870829 
C -2.366978 -1.374679 -2.645751 -0.701661 -2.645751 0 
C -2.645751 0.701661 -2.366978 1.374679 -1.870829 1.870829 
C -1.374679 2.366978 -0.701661 2.645751 0 2.645751 
z
" style="stroke: #d95f02"/>
    </defs>
    <g clip-path="url(#p2a1e975af7)">
     <use xlink:href="#m7b7d253a6c" x="174.930646" y="107.779573" style="fill: #d95f02; stroke: #d95f02"/>
    </g>
   </g>
   <g id="PathCollection_49">
    <defs>
     <path id="m51acbc6311" d="M 0 1.118034 
C 0.296506 1.118034 0.580908 1.000231 0.790569 0.790569 
C 1.000231 0.580908 1.118034 0.296506 1.118034 0 
C 1.118034 -0.296506 1.000231 -0.580908 0.790569 -0.790569 
C 0.580908 -1.000231 0.296506 -1.118034 0 -1.118034 
C -0.296506 -1.118034 -0.580908 -1.000231 -0.790569 -0.790569 
C -1.000231 -0.580908 -1.118034 -0.296506 -1.118034 0 
C -1.118034 0.296506 -1.000231 0.580908 -0.790569 0.790569 
C -0.580908 1.000231 -0.296506 1.118034 0 1.118034 
z
" style="stroke: #7570b3"/>
    </defs>
    <g clip-path="url(#p2a1e975af7)">
     <use xlink:href="#m51acbc6311" x="41.784163" y="93.643685" style="fill: #7570b3; stroke: #7570b3"/>
    </g>
   </g>
   <g id="PathCollection_50">
    <defs>
     <path id="m20f169009b" d="M 0 1.224745 
C 0.324806 1.224745 0.636353 1.095698 0.866025 0.866025 
C 1.095698 0.636353 1.224745 0.324806 1.224745 0 
C 1.224745 -0.324806 1.095698 -0.636353 0.866025 -0.866025 
C 0.636353 -1.095698 0.324806 -1.224745 0 -1.224745 
C -0.324806 -1.224745 -0.636353 -1.095698 -0.866025 -0.866025 
C -1.095698 -0.636353 -1.224745 -0.324806 -1.224745 0 
C -1.224745 0.324806 -1.095698 0.636353 -0.866025 0.866025 
C -0.636353 1.095698 -0.324806 1.224745 0 1.224745 
z
" style="stroke: #7570b3"/>
    </defs>
    <g clip-path="url(#p2a1e975af7)">
     <use xlink:href="#m20f169009b" x="45.642374" y="117.97925" style="fill: #7570b3; stroke: #7570b3"/>
    </g>
   </g>
   <g id="PathCollection_51">
    <defs>
     <path id="m97b7d9d1e7" d="M 0 1.322876 
C 0.350831 1.322876 0.68734 1.183489 0.935414 0.935414 
C 1.183489 0.68734 1.322876 0.350831 1.322876 0 
C 1.322876 -0.350831 1.183489 -0.68734 0.935414 -0.935414 
C 0.68734 -1.183489 0.350831 -1.322876 0 -1.322876 
C -0.350831 -1.322876 -0.68734 -1.183489 -0.935414 -0.935414 
C -1.183489 -0.68734 -1.322876 -0.350831 -1.322876 0 
C -1.322876 0.350831 -1.183489 0.68734 -0.935414 0.935414 
C -0.68734 1.183489 -0.350831 1.322876 0 1.322876 
z
" style="stroke: #7570b3"/>
    </defs>
    <g clip-path="url(#p2a1e975af7)">
     <use xlink:href="#m97b7d9d1e7" x="56.685144" y="139.676944" style="fill: #7570b3; stroke: #7570b3"/>
    </g>
   </g>
   <g id="PathCollection_52">
    <defs>
     <path id="mf4534f4ab5" d="M 0 1.414214 
C 0.375054 1.414214 0.734797 1.265203 1 1 
C 1.265203 0.734797 1.414214 0.375054 1.414214 0 
C 1.414214 -0.375054 1.265203 -0.734797 1 -1 
C 0.734797 -1.265203 0.375054 -1.414214 0 -1.414214 
C -0.375054 -1.414214 -0.734797 -1.265203 -1 -1 
C -1.265203 -0.734797 -1.414214 -0.375054 -1.414214 0 
C -1.414214 0.375054 -1.265203 0.734797 -1 1 
C -0.734797 1.265203 -0.375054 1.414214 0 1.414214 
z
" style="stroke: #7570b3"/>
    </defs>
    <g clip-path="url(#p2a1e975af7)">
     <use xlink:href="#mf4534f4ab5" x="73.418262" y="156.554313" style="fill: #7570b3; stroke: #7570b3"/>
    </g>
   </g>
   <g id="PathCollection_53">
    <defs>
     <path id="mba89c56a91" d="M 0 1.5 
C 0.397805 1.5 0.77937 1.341951 1.06066 1.06066 
C 1.341951 0.77937 1.5 0.397805 1.5 0 
C 1.5 -0.397805 1.341951 -0.77937 1.06066 -1.06066 
C 0.77937 -1.341951 0.397805 -1.5 0 -1.5 
C -0.397805 -1.5 -0.77937 -1.341951 -1.06066 -1.06066 
C -1.341951 -0.77937 -1.5 -0.397805 -1.5 0 
C -1.5 0.397805 -1.341951 0.77937 -1.06066 1.06066 
C -0.77937 1.341951 -0.397805 1.5 0 1.5 
z
" style="stroke: #7570b3"/>
    </defs>
    <g clip-path="url(#p2a1e975af7)">
     <use xlink:href="#mba89c56a91" x="93.691501" y="167.251761" style="fill: #7570b3; stroke: #7570b3"/>
    </g>
   </g>
   <g id="PathCollection_54">
    <defs>
     <path id="m0c8bf22372" d="M 0 1.581139 
C 0.419323 1.581139 0.821528 1.41454 1.118034 1.118034 
C 1.41454 0.821528 1.581139 0.419323 1.581139 0 
C 1.581139 -0.419323 1.41454 -0.821528 1.118034 -1.118034 
C 0.821528 -1.41454 0.419323 -1.581139 0 -1.581139 
C -0.419323 -1.581139 -0.821528 -1.41454 -1.118034 -1.118034 
C -1.41454 -0.821528 -1.581139 -0.419323 -1.581139 0 
C -1.581139 0.419323 -1.41454 0.821528 -1.118034 1.118034 
C -0.821528 1.41454 -0.419323 1.581139 0 1.581139 
z
" style="stroke: #7570b3"/>
    </defs>
    <g clip-path="url(#p2a1e975af7)">
     <use xlink:href="#m0c8bf22372" x="115.163636" y="171.403096" style="fill: #7570b3; stroke: #7570b3"/>
    </g>
   </g>
   <g id="PathCollection_55">
    <defs>
     <path id="mbb7ef74ef5" d="M 0 1.658312 
C 0.43979 1.658312 0.861626 1.483582 1.172604 1.172604 
C 1.483582 0.861626 1.658312 0.43979 1.658312 0 
C 1.658312 -0.43979 1.483582 -0.861626 1.172604 -1.172604 
C 0.861626 -1.483582 0.43979 -1.658312 0 -1.658312 
C -0.43979 -1.658312 -0.861626 -1.483582 -1.172604 -1.172604 
C -1.483582 -0.861626 -1.658312 -0.43979 -1.658312 0 
C -1.658312 0.43979 -1.483582 0.861626 -1.172604 1.172604 
C -0.861626 1.483582 -0.43979 1.658312 0 1.658312 
z
" style="stroke: #7570b3"/>
    </defs>
    <g clip-path="url(#p2a1e975af7)">
     <use xlink:href="#mbb7ef74ef5" x="135.766718" y="169.535366" style="fill: #7570b3; stroke: #7570b3"/>
    </g>
   </g>
   <g id="PathCollection_56">
    <defs>
     <path id="m4ddb362578" d="M 0 1.732051 
C 0.459345 1.732051 0.899939 1.549551 1.224745 1.224745 
C 1.549551 0.899939 1.732051 0.459345 1.732051 0 
C 1.732051 -0.459345 1.549551 -0.899939 1.224745 -1.224745 
C 0.899939 -1.549551 0.459345 -1.732051 0 -1.732051 
C -0.459345 -1.732051 -0.899939 -1.549551 -1.224745 -1.224745 
C -1.549551 -0.899939 -1.732051 -0.459345 -1.732051 0 
C -1.732051 0.459345 -1.549551 0.899939 -1.224745 1.224745 
C -0.899939 1.549551 -0.459345 1.732051 0 1.732051 
z
" style="stroke: #7570b3"/>
    </defs>
    <g clip-path="url(#p2a1e975af7)">
     <use xlink:href="#m4ddb362578" x="154.027105" y="162.743437" style="fill: #7570b3; stroke: #7570b3"/>
    </g>
   </g>
   <g id="PathCollection_57">
    <defs>
     <path id="mb1bd8eb83d" d="M 0 1.802776 
C 0.478102 1.802776 0.936686 1.612824 1.274755 1.274755 
C 1.612824 0.936686 1.802776 0.478102 1.802776 0 
C 1.802776 -0.478102 1.612824 -0.936686 1.274755 -1.274755 
C 0.936686 -1.612824 0.478102 -1.802776 0 -1.802776 
C -0.478102 -1.802776 -0.936686 -1.612824 -1.274755 -1.274755 
C -1.612824 -0.936686 -1.802776 -0.478102 -1.802776 0 
C -1.802776 0.478102 -1.612824 0.936686 -1.274755 1.274755 
C -0.936686 1.612824 -0.478102 1.802776 0 1.802776 
z
" style="stroke: #7570b3"/>
    </defs>
    <g clip-path="url(#p2a1e975af7)">
     <use xlink:href="#mb1bd8eb83d" x="169.131575" y="152.300453" style="fill: #7570b3; stroke: #7570b3"/>
    </g>
   </g>
   <g id="PathCollection_58">
    <defs>
     <path id="m1ce9218388" d="M 0 1.870829 
C 0.49615 1.870829 0.972045 1.673706 1.322876 1.322876 
C 1.673706 0.972045 1.870829 0.49615 1.870829 0 
C 1.870829 -0.49615 1.673706 -0.972045 1.322876 -1.322876 
C 0.972045 -1.673706 0.49615 -1.870829 0 -1.870829 
C -0.49615 -1.870829 -0.972045 -1.673706 -1.322876 -1.322876 
C -1.673706 -0.972045 -1.870829 -0.49615 -1.870829 0 
C -1.870829 0.49615 -1.673706 0.972045 -1.322876 1.322876 
C -0.972045 1.673706 -0.49615 1.870829 0 1.870829 
z
" style="stroke: #7570b3"/>
    </defs>
    <g clip-path="url(#p2a1e975af7)">
     <use xlink:href="#m1ce9218388" x="180.772324" y="139.366731" style="fill: #7570b3; stroke: #7570b3"/>
    </g>
   </g>
   <g id="PathCollection_59">
    <defs>
     <path id="m4c03d858a2" d="M 0 1.936492 
C 0.513564 1.936492 1.006162 1.732451 1.369306 1.369306 
C 1.732451 1.006162 1.936492 0.513564 1.936492 0 
C 1.936492 -0.513564 1.732451 -1.006162 1.369306 -1.369306 
C 1.006162 -1.732451 0.513564 -1.936492 0 -1.936492 
C -0.513564 -1.936492 -1.006162 -1.732451 -1.369306 -1.369306 
C -1.732451 -1.006162 -1.936492 -0.513564 -1.936492 0 
C -1.936492 0.513564 -1.732451 1.006162 -1.369306 1.369306 
C -1.006162 1.732451 -0.513564 1.936492 0 1.936492 
z
" style="stroke: #7570b3"/>
    </defs>
    <g clip-path="url(#p2a1e975af7)">
     <use xlink:href="#m4c03d858a2" x="188.950086" y="124.859976" style="fill: #7570b3; stroke: #7570b3"/>
    </g>
   </g>
   <g id="PathCollection_60">
    <defs>
     <path id="m1407e82bd2" d="M 0 2 
C 0.530406 2 1.03916 1.789267 1.414214 1.414214 
C 1.789267 1.03916 2 0.530406 2 0 
C 2 -0.530406 1.789267 -1.03916 1.414214 -1.414214 
C 1.03916 -1.789267 0.530406 -2 0 -2 
C -0.530406 -2 -1.03916 -1.789267 -1.414214 -1.414214 
C -1.789267 -1.03916 -2 -0.530406 -2 0 
C -2 0.530406 -1.789267 1.03916 -1.414214 1.414214 
C -1.03916 1.789267 -0.530406 2 0 2 
z
" style="stroke: #7570b3"/>
    </defs>
    <g clip-path="url(#p2a1e975af7)">
     <use xlink:href="#m1407e82bd2" x="193.780931" y="109.453925" style="fill: #7570b3; stroke: #7570b3"/>
    </g>
   </g>
   <g id="PathCollection_61">
    <defs>
     <path id="m325a27bb3e" d="M 0 2.061553 
C 0.54673 2.061553 1.071141 1.844335 1.457738 1.457738 
C 1.844335 1.071141 2.061553 0.54673 2.061553 0 
C 2.061553 -0.54673 1.844335 -1.071141 1.457738 -1.457738 
C 1.071141 -1.844335 0.54673 -2.061553 0 -2.061553 
C -0.54673 -2.061553 -1.071141 -1.844335 -1.457738 -1.457738 
C -1.844335 -1.071141 -2.061553 -0.54673 -2.061553 0 
C -2.061553 0.54673 -1.844335 1.071141 -1.457738 1.457738 
C -1.071141 1.844335 -0.54673 2.061553 0 2.061553 
z
" style="stroke: #7570b3"/>
    </defs>
    <g clip-path="url(#p2a1e975af7)">
     <use xlink:href="#m325a27bb3e" x="195.37652" y="93.64368" style="fill: #7570b3; stroke: #7570b3"/>
    </g>
   </g>
   <g id="PathCollection_62">
    <defs>
     <path id="mf9cca78292" d="M 0 2.12132 
C 0.562581 2.12132 1.102195 1.897805 1.5 1.5 
C 1.897805 1.102195 2.12132 0.562581 2.12132 0 
C 2.12132 -0.562581 1.897805 -1.102195 1.5 -1.5 
C 1.102195 -1.897805 0.562581 -2.12132 0 -2.12132 
C -0.562581 -2.12132 -1.102195 -1.897805 -1.5 -1.5 
C -1.897805 -1.102195 -2.12132 -0.562581 -2.12132 0 
C -2.12132 0.562581 -1.897805 1.102195 -1.5 1.5 
C -1.102195 1.897805 -0.562581 2.12132 0 2.12132 
z
" style="stroke: #7570b3"/>
    </defs>
    <g clip-path="url(#p2a1e975af7)">
     <use xlink:href="#mf9cca78292" x="193.780931" y="77.833454" style="fill: #7570b3; stroke: #7570b3"/>
    </g>
   </g>
   <g id="PathCollection_63">
    <defs>
     <path id="mab966472d8" d="M 0 2.179449 
C 0.577997 2.179449 1.132398 1.949809 1.541104 1.541104 
C 1.949809 1.132398 2.179449 0.577997 2.179449 0 
C 2.179449 -0.577997 1.949809 -1.132398 1.541104 -1.541104 
C 1.132398 -1.949809 0.577997 -2.179449 0 -2.179449 
C -0.577997 -2.179449 -1.132398 -1.949809 -1.541104 -1.541104 
C -1.949809 -1.132398 -2.179449 -0.577997 -2.179449 0 
C -2.179449 0.577997 -1.949809 1.132398 -1.541104 1.541104 
C -1.132398 1.949809 -0.577997 2.179449 0 2.179449 
z
" style="stroke: #7570b3"/>
    </defs>
    <g clip-path="url(#p2a1e975af7)">
     <use xlink:href="#mab966472d8" x="188.950086" y="62.427403" style="fill: #7570b3; stroke: #7570b3"/>
    </g>
   </g>
   <g id="PathCollection_64">
    <defs>
     <path id="mf9e47e8197" d="M 0 2.236068 
C 0.593012 2.236068 1.161816 2.000462 1.581139 1.581139 
C 2.000462 1.161816 2.236068 0.593012 2.236068 0 
C 2.236068 -0.593012 2.000462 -1.161816 1.581139 -1.581139 
C 1.161816 -2.000462 0.593012 -2.236068 0 -2.236068 
C -0.593012 -2.236068 -1.161816 -2.000462 -1.581139 -1.581139 
C -2.000462 -1.161816 -2.236068 -0.593012 -2.236068 0 
C -2.236068 0.593012 -2.000462 1.161816 -1.581139 1.581139 
C -1.161816 2.000462 -0.593012 2.236068 0 2.236068 
z
" style="stroke: #7570b3"/>
    </defs>
    <g clip-path="url(#p2a1e975af7)">
     <use xlink:href="#mf9e47e8197" x="180.772324" y="47.920638" style="fill: #7570b3; stroke: #7570b3"/>
    </g>
   </g>
   <g id="PathCollection_65">
    <defs>
     <path id="maeafe6bc92" d="M 0 2.291288 
C 0.607657 2.291288 1.190507 2.049863 1.620185 1.620185 
C 2.049863 1.190507 2.291288 0.607657 2.291288 0 
C 2.291288 -0.607657 2.049863 -1.190507 1.620185 -1.620185 
C 1.190507 -2.049863 0.607657 -2.291288 0 -2.291288 
C -0.607657 -2.291288 -1.190507 -2.049863 -1.620185 -1.620185 
C -2.049863 -1.190507 -2.291288 -0.607657 -2.291288 0 
C -2.291288 0.607657 -2.049863 1.190507 -1.620185 1.620185 
C -1.190507 2.049863 -0.607657 2.291288 0 2.291288 
z
" style="stroke: #7570b3"/>
    </defs>
    <g clip-path="url(#p2a1e975af7)">
     <use xlink:href="#maeafe6bc92" x="169.131575" y="34.986905" style="fill: #7570b3; stroke: #7570b3"/>
    </g>
   </g>
   <g id="PathCollection_66">
    <defs>
     <path id="m4b9dbd47bf" d="M 0 2.345208 
C 0.621956 2.345208 1.218523 2.098102 1.658312 1.658312 
C 2.098102 1.218523 2.345208 0.621956 2.345208 0 
C 2.345208 -0.621956 2.098102 -1.218523 1.658312 -1.658312 
C 1.218523 -2.098102 0.621956 -2.345208 0 -2.345208 
C -0.621956 -2.345208 -1.218523 -2.098102 -1.658312 -1.658312 
C -2.098102 -1.218523 -2.345208 -0.621956 -2.345208 0 
C -2.345208 0.621956 -2.098102 1.218523 -1.658312 1.658312 
C -1.218523 2.098102 -0.621956 2.345208 0 2.345208 
z
" style="stroke: #7570b3"/>
    </defs>
    <g clip-path="url(#p2a1e975af7)">
     <use xlink:href="#m4b9dbd47bf" x="154.027105" y="24.543933" style="fill: #7570b3; stroke: #7570b3"/>
    </g>
   </g>
   <g id="PathCollection_67">
    <defs>
     <path id="m30ebea6da0" d="M 0 2.397916 
C 0.635935 2.397916 1.245909 2.145256 1.695582 1.695582 
C 2.145256 1.245909 2.397916 0.635935 2.397916 0 
C 2.397916 -0.635935 2.145256 -1.245909 1.695582 -1.695582 
C 1.245909 -2.145256 0.635935 -2.397916 0 -2.397916 
C -0.635935 -2.397916 -1.245909 -2.145256 -1.695582 -1.695582 
C -2.145256 -1.245909 -2.397916 -0.635935 -2.397916 0 
C -2.397916 0.635935 -2.145256 1.245909 -1.695582 1.695582 
C -1.245909 2.145256 -0.635935 2.397916 0 2.397916 
z
" style="stroke: #7570b3"/>
    </defs>
    <g clip-path="url(#p2a1e975af7)">
     <use xlink:href="#m30ebea6da0" x="135.766718" y="17.752004" style="fill: #7570b3; stroke: #7570b3"/>
    </g>
   </g>
   <g id="PathCollection_68">
    <defs>
     <path id="mc2d9ada493" d="M 0 2.44949 
C 0.649612 2.44949 1.272706 2.191396 1.732051 1.732051 
C 2.191396 1.272706 2.44949 0.649612 2.44949 0 
C 2.44949 -0.649612 2.191396 -1.272706 1.732051 -1.732051 
C 1.272706 -2.191396 0.649612 -2.44949 0 -2.44949 
C -0.649612 -2.44949 -1.272706 -2.191396 -1.732051 -1.732051 
C -2.191396 -1.272706 -2.44949 -0.649612 -2.44949 0 
C -2.44949 0.649612 -2.191396 1.272706 -1.732051 1.732051 
C -1.272706 2.191396 -0.649612 2.44949 0 2.44949 
z
" style="stroke: #7570b3"/>
    </defs>
    <g clip-path="url(#p2a1e975af7)">
     <use xlink:href="#mc2d9ada493" x="115.163636" y="15.884274" style="fill: #7570b3; stroke: #7570b3"/>
    </g>
   </g>
   <g id="PathCollection_69">
    <defs>
     <path id="m685720a4ef" d="M 0 2.5 
C 0.663008 2.5 1.29895 2.236584 1.767767 1.767767 
C 2.236584 1.29895 2.5 0.663008 2.5 0 
C 2.5 -0.663008 2.236584 -1.29895 1.767767 -1.767767 
C 1.29895 -2.236584 0.663008 -2.5 0 -2.5 
C -0.663008 -2.5 -1.29895 -2.236584 -1.767767 -1.767767 
C -2.236584 -1.29895 -2.5 -0.663008 -2.5 0 
C -2.5 0.663008 -2.236584 1.29895 -1.767767 1.767767 
C -1.29895 2.236584 -0.663008 2.5 0 2.5 
z
" style="stroke: #7570b3"/>
    </defs>
    <g clip-path="url(#p2a1e975af7)">
     <use xlink:href="#m685720a4ef" x="93.691501" y="20.035597" style="fill: #7570b3; stroke: #7570b3"/>
    </g>
   </g>
   <g id="PathCollection_70">
    <defs>
     <path id="m331bd9ca55" d="M 0 2.54951 
C 0.676138 2.54951 1.324674 2.280877 1.802776 1.802776 
C 2.280877 1.324674 2.54951 0.676138 2.54951 0 
C 2.54951 -0.676138 2.280877 -1.324674 1.802776 -1.802776 
C 1.324674 -2.280877 0.676138 -2.54951 0 -2.54951 
C -0.676138 -2.54951 -1.324674 -2.280877 -1.802776 -1.802776 
C -2.280877 -1.324674 -2.54951 -0.676138 -2.54951 0 
C -2.54951 0.676138 -2.280877 1.324674 -1.802776 1.802776 
C -1.324674 2.280877 -0.676138 2.54951 0 2.54951 
z
" style="stroke: #7570b3"/>
    </defs>
    <g clip-path="url(#p2a1e975af7)">
     <use xlink:href="#m331bd9ca55" x="73.418262" y="30.733063" style="fill: #7570b3; stroke: #7570b3"/>
    </g>
   </g>
   <g id="PathCollection_71">
    <defs>
     <path id="mbe0b38010f" d="M 0 2.598076 
C 0.689018 2.598076 1.349908 2.324327 1.837117 1.837117 
C 2.324327 1.349908 2.598076 0.689018 2.598076 0 
C 2.598076 -0.689018 2.324327 -1.349908 1.837117 -1.837117 
C 1.349908 -2.324327 0.689018 -2.598076 0 -2.598076 
C -0.689018 -2.598076 -1.349908 -2.324327 -1.837117 -1.837117 
C -2.324327 -1.349908 -2.598076 -0.689018 -2.598076 0 
C -2.598076 0.689018 -2.324327 1.349908 -1.837117 1.837117 
C -1.349908 2.324327 -0.689018 2.598076 0 2.598076 
z
" style="stroke: #7570b3"/>
    </defs>
    <g clip-path="url(#p2a1e975af7)">
     <use xlink:href="#mbe0b38010f" x="56.685144" y="47.610409" style="fill: #7570b3; stroke: #7570b3"/>
    </g>
   </g>
   <g id="PathCollection_72">
    <defs>
     <path id="ma332b2be0e" d="M 0 2.645751 
C 0.701661 2.645751 1.374679 2.366978 1.870829 1.870829 
C 2.366978 1.374679 2.645751 0.701661 2.645751 0 
C 2.645751 -0.701661 2.366978 -1.374679 1.870829 -1.870829 
C 1.374679 -2.366978 0.701661 -2.645751 0 -2.645751 
C -0.701661 -2.645751 -1.374679 -2.366978 -1.870829 -1.870829 
C -2.366978 -1.374679 -2.645751 -0.701661 -2.645751 0 
C -2.645751 0.701661 -2.366978 1.374679 -1.870829 1.870829 
C -1.374679 2.366978 -0.701661 2.645751 0 2.645751 
z
" style="stroke: #7570b3"/>
    </defs>
    <g clip-path="url(#p2a1e975af7)">
     <use xlink:href="#ma332b2be0e" x="45.642374" y="69.308137" style="fill: #7570b3; stroke: #7570b3"/>
    </g>
   </g>
   <g id="PathCollection_73">
    <defs>
     <path id="m812e9ae9ff" d="M 0 1.118034 
C 0.296506 1.118034 0.580908 1.000231 0.790569 0.790569 
C 1.000231 0.580908 1.118034 0.296506 1.118034 0 
C 1.118034 -0.296506 1.000231 -0.580908 0.790569 -0.790569 
C 0.580908 -1.000231 0.296506 -1.118034 0 -1.118034 
C -0.296506 -1.118034 -0.580908 -1.000231 -0.790569 -0.790569 
C -1.000231 -0.580908 -1.118034 -0.296506 -1.118034 0 
C -1.118034 0.296506 -1.000231 0.580908 -0.790569 0.790569 
C -0.580908 1.000231 -0.296506 1.118034 0 1.118034 
z
" style="stroke: #e7298a"/>
    </defs>
    <g clip-path="url(#p2a1e975af7)">
     <use xlink:href="#m812e9ae9ff" x="171.127072" y="93.643685" style="fill: #e7298a; stroke: #e7298a"/>
    </g>
   </g>
   <g id="PathCollection_74">
    <defs>
     <path id="ma9b4f9af30" d="M 0 1.224745 
C 0.324806 1.224745 0.636353 1.095698 0.866025 0.866025 
C 1.095698 0.636353 1.224745 0.324806 1.224745 0 
C 1.224745 -0.324806 1.095698 -0.636353 0.866025 -0.866025 
C 0.636353 -1.095698 0.324806 -1.224745 0 -1.224745 
C -0.324806 -1.224745 -0.636353 -1.095698 -0.866025 -0.866025 
C -1.095698 -0.636353 -1.224745 -0.324806 -1.224745 0 
C -1.224745 0.324806 -1.095698 0.636353 -0.866025 0.866025 
C -0.636353 1.095698 -0.324806 1.224745 0 1.224745 
z
" style="stroke: #e7298a"/>
    </defs>
    <g clip-path="url(#p2a1e975af7)">
     <use xlink:href="#ma9b4f9af30" x="168.415691" y="79.484996" style="fill: #e7298a; stroke: #e7298a"/>
    </g>
   </g>
   <g id="PathCollection_75">
    <defs>
     <path id="m9dfb7ea09a" d="M 0 1.322876 
C 0.350831 1.322876 0.68734 1.183489 0.935414 0.935414 
C 1.183489 0.68734 1.322876 0.350831 1.322876 0 
C 1.322876 -0.350831 1.183489 -0.68734 0.935414 -0.935414 
C 0.68734 -1.183489 0.350831 -1.322876 0 -1.322876 
C -0.350831 -1.322876 -0.68734 -1.183489 -0.935414 -0.935414 
C -1.183489 -0.68734 -1.322876 -0.350831 -1.322876 0 
C -1.322876 0.350831 -1.183489 0.68734 -0.935414 0.935414 
C -0.68734 1.183489 -0.350831 1.322876 0 1.322876 
z
" style="stroke: #e7298a"/>
    </defs>
    <g clip-path="url(#p2a1e975af7)">
     <use xlink:href="#m9dfb7ea09a" x="160.864465" y="67.596117" style="fill: #e7298a; stroke: #e7298a"/>
    </g>
   </g>
   <g id="PathCollection_76">
    <defs>
     <path id="mde42322ca1" d="M 0 1.414214 
C 0.375054 1.414214 0.734797 1.265203 1 1 
C 1.265203 0.734797 1.414214 0.375054 1.414214 0 
C 1.414214 -0.375054 1.265203 -0.734797 1 -1 
C 0.734797 -1.265203 0.375054 -1.414214 0 -1.414214 
C -0.375054 -1.414214 -0.734797 -1.265203 -1 -1 
C -1.265203 -0.734797 -1.414214 -0.375054 -1.414214 0 
C -1.414214 0.375054 -1.265203 0.734797 -1 1 
C -0.734797 1.265203 -0.375054 1.414214 0 1.414214 
z
" style="stroke: #e7298a"/>
    </defs>
    <g clip-path="url(#p2a1e975af7)">
     <use xlink:href="#mde42322ca1" x="150.027113" y="59.641753" style="fill: #e7298a; stroke: #e7298a"/>
    </g>
   </g>
   <g id="PathCollection_77">
    <defs>
     <path id="m883d1b387f" d="M 0 1.5 
C 0.397805 1.5 0.77937 1.341951 1.06066 1.06066 
C 1.341951 0.77937 1.5 0.397805 1.5 0 
C 1.5 -0.397805 1.341951 -0.77937 1.06066 -1.06066 
C 0.77937 -1.341951 0.397805 -1.5 0 -1.5 
C -0.397805 -1.5 -0.77937 -1.341951 -1.06066 -1.06066 
C -1.341951 -0.77937 -1.5 -0.397805 -1.5 0 
C -1.5 0.397805 -1.341951 0.77937 -1.06066 1.06066 
C -0.77937 1.341951 -0.397805 1.5 0 1.5 
z
" style="stroke: #e7298a"/>
    </defs>
    <g clip-path="url(#p2a1e975af7)">
     <use xlink:href="#m883d1b387f" x="137.949083" y="56.295668" style="fill: #e7298a; stroke: #e7298a"/>
    </g>
   </g>
   <g id="PathCollection_78">
    <defs>
     <path id="m0509d37519" d="M 0 1.581139 
C 0.419323 1.581139 0.821528 1.41454 1.118034 1.118034 
C 1.41454 0.821528 1.581139 0.419323 1.581139 0 
C 1.581139 -0.419323 1.41454 -0.821528 1.118034 -1.118034 
C 0.821528 -1.41454 0.419323 -1.581139 0 -1.581139 
C -0.419323 -1.581139 -0.821528 -1.41454 -1.118034 -1.118034 
C -1.41454 -0.821528 -1.581139 -0.419323 -1.581139 0 
C -1.581139 0.419323 -1.41454 0.821528 -1.118034 1.118034 
C -0.821528 1.41454 -0.419323 1.581139 0 1.581139 
z
" style="stroke: #e7298a"/>
    </defs>
    <g clip-path="url(#p2a1e975af7)">
     <use xlink:href="#m0509d37519" x="126.570317" y="57.200654" style="fill: #e7298a; stroke: #e7298a"/>
    </g>
   </g>
   <g id="PathCollection_79">
    <defs>
     <path id="m4aa53361ae" d="M 0 1.658312 
C 0.43979 1.658312 0.861626 1.483582 1.172604 1.172604 
C 1.483582 0.861626 1.658312 0.43979 1.658312 0 
C 1.658312 -0.43979 1.483582 -0.861626 1.172604 -1.172604 
C 0.861626 -1.483582 0.43979 -1.658312 0 -1.658312 
C -0.43979 -1.658312 -0.861626 -1.483582 -1.172604 -1.172604 
C -1.483582 -0.861626 -1.658312 -0.43979 -1.658312 0 
C -1.658312 0.43979 -1.483582 0.861626 -1.172604 1.172604 
C -0.861626 1.483582 -0.43979 1.658312 0 1.658312 
z
" style="stroke: #e7298a"/>
    </defs>
    <g clip-path="url(#p2a1e975af7)">
     <use xlink:href="#m4aa53361ae" x="117.251051" y="61.255105" style="fill: #e7298a; stroke: #e7298a"/>
    </g>
   </g>
   <g id="PathCollection_80">
    <defs>
     <path id="m6fc17725c9" d="M 0 1.732051 
C 0.459345 1.732051 0.899939 1.549551 1.224745 1.224745 
C 1.549551 0.899939 1.732051 0.459345 1.732051 0 
C 1.732051 -0.459345 1.549551 -0.899939 1.224745 -1.224745 
C 0.899939 -1.549551 0.459345 -1.732051 0 -1.732051 
C -0.459345 -1.732051 -0.899939 -1.549551 -1.224745 -1.224745 
C -1.549551 -0.899939 -1.732051 -0.459345 -1.732051 0 
C -1.732051 0.459345 -1.549551 0.899939 -1.224745 1.224745 
C -0.899939 1.549551 -0.459345 1.732051 0 1.732051 
z
" style="stroke: #e7298a"/>
    </defs>
    <g clip-path="url(#p2a1e975af7)">
     <use xlink:href="#m6fc17725c9" x="110.569889" y="67.07284" style="fill: #e7298a; stroke: #e7298a"/>
    </g>
   </g>
   <g id="PathCollection_81">
    <defs>
     <path id="m728538a992" d="M 0 1.802776 
C 0.478102 1.802776 0.936686 1.612824 1.274755 1.274755 
C 1.612824 0.936686 1.802776 0.478102 1.802776 0 
C 1.802776 -0.478102 1.612824 -0.936686 1.274755 -1.274755 
C 0.936686 -1.612824 0.478102 -1.802776 0 -1.802776 
C -0.478102 -1.802776 -0.936686 -1.612824 -1.274755 -1.274755 
C -1.612824 -0.936686 -1.802776 -0.478102 -1.802776 0 
C -1.802776 0.478102 -1.612824 0.936686 -1.274755 1.274755 
C -0.936686 1.612824 -0.478102 1.802776 0 1.802776 
z
" style="stroke: #e7298a"/>
    </defs>
    <g clip-path="url(#p2a1e975af7)">
     <use xlink:href="#m728538a992" x="106.408189" y="73.412252" style="fill: #e7298a; stroke: #e7298a"/>
    </g>
   </g>
   <g id="PathCollection_82">
    <defs>
     <path id="m9909699013" d="M 0 1.870829 
C 0.49615 1.870829 0.972045 1.673706 1.322876 1.322876 
C 1.673706 0.972045 1.870829 0.49615 1.870829 0 
C 1.870829 -0.49615 1.673706 -0.972045 1.322876 -1.322876 
C 0.972045 -1.673706 0.49615 -1.870829 0 -1.870829 
C -0.49615 -1.870829 -0.972045 -1.673706 -1.322876 -1.322876 
C -1.673706 -0.972045 -1.870829 -0.49615 -1.870829 0 
C -1.870829 0.49615 -1.673706 0.972045 -1.322876 1.322876 
C -0.972045 1.673706 -0.49615 1.870829 0 1.870829 
z
" style="stroke: #e7298a"/>
    </defs>
    <g clip-path="url(#p2a1e975af7)">
     <use xlink:href="#m9909699013" x="104.212601" y="79.433474" style="fill: #e7298a; stroke: #e7298a"/>
    </g>
   </g>
   <g id="PathCollection_83">
    <defs>
     <path id="m9022e60097" d="M 0 1.936492 
C 0.513564 1.936492 1.006162 1.732451 1.369306 1.369306 
C 1.732451 1.006162 1.936492 0.513564 1.936492 0 
C 1.936492 -0.513564 1.732451 -1.006162 1.369306 -1.369306 
C 1.006162 -1.732451 0.513564 -1.936492 0 -1.936492 
C -0.513564 -1.936492 -1.006162 -1.732451 -1.369306 -1.369306 
C -1.732451 -1.006162 -1.936492 -0.513564 -1.936492 0 
C -1.936492 0.513564 -1.732451 1.006162 -1.369306 1.369306 
C -1.006162 1.732451 -0.513564 1.936492 0 1.936492 
z
" style="stroke: #e7298a"/>
    </defs>
    <g clip-path="url(#p2a1e975af7)">
     <use xlink:href="#m9022e60097" x="103.285054" y="84.759455" style="fill: #e7298a; stroke: #e7298a"/>
    </g>
   </g>
   <g id="PathCollection_84">
    <defs>
     <path id="m5760a00f68" d="M 0 2 
C 0.530406 2 1.03916 1.789267 1.414214 1.414214 
C 1.789267 1.03916 2 0.530406 2 0 
C 2 -0.530406 1.789267 -1.03916 1.414214 -1.414214 
C 1.03916 -1.789267 0.530406 -2 0 -2 
C -0.530406 -2 -1.03916 -1.789267 -1.414214 -1.414214 
C -1.789267 -1.03916 -2 -0.530406 -2 0 
C -2 0.530406 -1.789267 1.03916 -1.414214 1.414214 
C -1.03916 1.789267 -0.530406 2 0 2 
z
" style="stroke: #e7298a"/>
    </defs>
    <g clip-path="url(#p2a1e975af7)">
     <use xlink:href="#m5760a00f68" x="103.003879" y="89.403957" style="fill: #e7298a; stroke: #e7298a"/>
    </g>
   </g>
   <g id="PathCollection_85">
    <defs>
     <path id="m72e2feeb33" d="M 0 2.061553 
C 0.54673 2.061553 1.071141 1.844335 1.457738 1.457738 
C 1.844335 1.071141 2.061553 0.54673 2.061553 0 
C 2.061553 -0.54673 1.844335 -1.071141 1.457738 -1.457738 
C 1.071141 -1.844335 0.54673 -2.061553 0 -2.061553 
C -0.54673 -2.061553 -1.071141 -1.844335 -1.457738 -1.457738 
C -1.844335 -1.071141 -2.061553 -0.54673 -2.061553 0 
C -2.061553 0.54673 -1.844335 1.071141 -1.457738 1.457738 
C -1.071141 1.844335 -0.54673 2.061553 0 2.061553 
z
" style="stroke: #e7298a"/>
    </defs>
    <g clip-path="url(#p2a1e975af7)">
     <use xlink:href="#m72e2feeb33" x="102.958333" y="93.643686" style="fill: #e7298a; stroke: #e7298a"/>
    </g>
   </g>
   <g id="PathCollection_86">
    <defs>
     <path id="mdf0bf9b7ed" d="M 0 2.12132 
C 0.562581 2.12132 1.102195 1.897805 1.5 1.5 
C 1.897805 1.102195 2.12132 0.562581 2.12132 0 
C 2.12132 -0.562581 1.897805 -1.102195 1.5 -1.5 
C 1.102195 -1.897805 0.562581 -2.12132 0 -2.12132 
C -0.562581 -2.12132 -1.102195 -1.897805 -1.5 -1.5 
C -1.897805 -1.102195 -2.12132 -0.562581 -2.12132 0 
C -2.12132 0.562581 -1.897805 1.102195 -1.5 1.5 
C -1.102195 1.897805 -0.562581 2.12132 0 2.12132 
z
" style="stroke: #e7298a"/>
    </defs>
    <g clip-path="url(#p2a1e975af7)">
     <use xlink:href="#mdf0bf9b7ed" x="103.003879" y="97.883416" style="fill: #e7298a; stroke: #e7298a"/>
    </g>
   </g>
   <g id="PathCollection_87">
    <defs>
     <path id="m9435e5dbf3" d="M 0 2.179449 
C 0.577997 2.179449 1.132398 1.949809 1.541104 1.541104 
C 1.949809 1.132398 2.179449 0.577997 2.179449 0 
C 2.179449 -0.577997 1.949809 -1.132398 1.541104 -1.541104 
C 1.132398 -1.949809 0.577997 -2.179449 0 -2.179449 
C -0.577997 -2.179449 -1.132398 -1.949809 -1.541104 -1.541104 
C -1.949809 -1.132398 -2.179449 -0.577997 -2.179449 0 
C -2.179449 0.577997 -1.949809 1.132398 -1.541104 1.541104 
C -1.132398 1.949809 -0.577997 2.179449 0 2.179449 
z
" style="stroke: #e7298a"/>
    </defs>
    <g clip-path="url(#p2a1e975af7)">
     <use xlink:href="#m9435e5dbf3" x="103.285054" y="102.527916" style="fill: #e7298a; stroke: #e7298a"/>
    </g>
   </g>
   <g id="PathCollection_88">
    <defs>
     <path id="m1ff0dab2c7" d="M 0 2.236068 
C 0.593012 2.236068 1.161816 2.000462 1.581139 1.581139 
C 2.000462 1.161816 2.236068 0.593012 2.236068 0 
C 2.236068 -0.593012 2.000462 -1.161816 1.581139 -1.581139 
C 1.161816 -2.000462 0.593012 -2.236068 0 -2.236068 
C -0.593012 -2.236068 -1.161816 -2.000462 -1.581139 -1.581139 
C -2.000462 -1.161816 -2.236068 -0.593012 -2.236068 0 
C -2.236068 0.593012 -2.000462 1.161816 -1.581139 1.581139 
C -1.161816 2.000462 -0.593012 2.236068 0 2.236068 
z
" style="stroke: #e7298a"/>
    </defs>
    <g clip-path="url(#p2a1e975af7)">
     <use xlink:href="#m1ff0dab2c7" x="104.212601" y="107.853885" style="fill: #e7298a; stroke: #e7298a"/>
    </g>
   </g>
   <g id="PathCollection_89">
    <defs>
     <path id="m8349ab747c" d="M 0 2.291288 
C 0.607657 2.291288 1.190507 2.049863 1.620185 1.620185 
C 2.049863 1.190507 2.291288 0.607657 2.291288 0 
C 2.291288 -0.607657 2.049863 -1.190507 1.620185 -1.620185 
C 1.190507 -2.049863 0.607657 -2.291288 0 -2.291288 
C -0.607657 -2.291288 -1.190507 -2.049863 -1.620185 -1.620185 
C -2.049863 -1.190507 -2.291288 -0.607657 -2.291288 0 
C -2.291288 0.607657 -2.049863 1.190507 -1.620185 1.620185 
C -1.190507 2.049863 -0.607657 2.291288 0 2.291288 
z
" style="stroke: #e7298a"/>
    </defs>
    <g clip-path="url(#p2a1e975af7)">
     <use xlink:href="#m8349ab747c" x="106.408189" y="113.875108" style="fill: #e7298a; stroke: #e7298a"/>
    </g>
   </g>
   <g id="PathCollection_90">
    <defs>
     <path id="md385f50492" d="M 0 2.345208 
C 0.621956 2.345208 1.218523 2.098102 1.658312 1.658312 
C 2.098102 1.218523 2.345208 0.621956 2.345208 0 
C 2.345208 -0.621956 2.098102 -1.218523 1.658312 -1.658312 
C 1.218523 -2.098102 0.621956 -2.345208 0 -2.345208 
C -0.621956 -2.345208 -1.218523 -2.098102 -1.658312 -1.658312 
C -2.098102 -1.218523 -2.345208 -0.621956 -2.345208 0 
C -2.345208 0.621956 -2.098102 1.218523 -1.658312 1.658312 
C -1.218523 2.098102 -0.621956 2.345208 0 2.345208 
z
" style="stroke: #e7298a"/>
    </defs>
    <g clip-path="url(#p2a1e975af7)">
     <use xlink:href="#md385f50492" x="110.569889" y="120.214524" style="fill: #e7298a; stroke: #e7298a"/>
    </g>
   </g>
   <g id="PathCollection_91">
    <defs>
     <path id="m75c7b62193" d="M 0 2.397916 
C 0.635935 2.397916 1.245909 2.145256 1.695582 1.695582 
C 2.145256 1.245909 2.397916 0.635935 2.397916 0 
C 2.397916 -0.635935 2.145256 -1.245909 1.695582 -1.695582 
C 1.245909 -2.145256 0.635935 -2.397916 0 -2.397916 
C -0.635935 -2.397916 -1.245909 -2.145256 -1.695582 -1.695582 
C -2.145256 -1.245909 -2.397916 -0.635935 -2.397916 0 
C -2.397916 0.635935 -2.145256 1.245909 -1.695582 1.695582 
C -1.245909 2.145256 -0.635935 2.397916 0 2.397916 
z
" style="stroke: #e7298a"/>
    </defs>
    <g clip-path="url(#p2a1e975af7)">
     <use xlink:href="#m75c7b62193" x="117.251051" y="126.032264" style="fill: #e7298a; stroke: #e7298a"/>
    </g>
   </g>
   <g id="PathCollection_92">
    <defs>
     <path id="ma7a8453b3c" d="M 0 2.44949 
C 0.649612 2.44949 1.272706 2.191396 1.732051 1.732051 
C 2.191396 1.272706 2.44949 0.649612 2.44949 0 
C 2.44949 -0.649612 2.191396 -1.272706 1.732051 -1.732051 
C 1.272706 -2.191396 0.649612 -2.44949 0 -2.44949 
C -0.649612 -2.44949 -1.272706 -2.191396 -1.732051 -1.732051 
C -2.191396 -1.272706 -2.44949 -0.649612 -2.44949 0 
C -2.44949 0.649612 -2.191396 1.272706 -1.732051 1.732051 
C -1.272706 2.191396 -0.649612 2.44949 0 2.44949 
z
" style="stroke: #e7298a"/>
    </defs>
    <g clip-path="url(#p2a1e975af7)">
     <use xlink:href="#ma7a8453b3c" x="126.570317" y="130.086733" style="fill: #e7298a; stroke: #e7298a"/>
    </g>
   </g>
   <g id="PathCollection_93">
    <defs>
     <path id="m2311df46aa" d="M 0 2.5 
C 0.663008 2.5 1.29895 2.236584 1.767767 1.767767 
C 2.236584 1.29895 2.5 0.663008 2.5 0 
C 2.5 -0.663008 2.236584 -1.29895 1.767767 -1.767767 
C 1.29895 -2.236584 0.663008 -2.5 0 -2.5 
C -0.663008 -2.5 -1.29895 -2.236584 -1.767767 -1.767767 
C -2.236584 -1.29895 -2.5 -0.663008 -2.5 0 
C -2.5 0.663008 -2.236584 1.29895 -1.767767 1.767767 
C -1.29895 2.236584 -0.663008 2.5 0 2.5 
z
" style="stroke: #e7298a"/>
    </defs>
    <g clip-path="url(#p2a1e975af7)">
     <use xlink:href="#m2311df46aa" x="137.949083" y="130.991696" style="fill: #e7298a; stroke: #e7298a"/>
    </g>
   </g>
   <g id="PathCollection_94">
    <defs>
     <path id="m36d0eda444" d="M 0 2.54951 
C 0.676138 2.54951 1.324674 2.280877 1.802776 1.802776 
C 2.280877 1.324674 2.54951 0.676138 2.54951 0 
C 2.54951 -0.676138 2.280877 -1.324674 1.802776 -1.802776 
C 1.324674 -2.280877 0.676138 -2.54951 0 -2.54951 
C -0.676138 -2.54951 -1.324674 -2.280877 -1.802776 -1.802776 
C -2.280877 -1.324674 -2.54951 -0.676138 -2.54951 0 
C -2.54951 0.676138 -2.280877 1.324674 -1.802776 1.802776 
C -1.324674 2.280877 -0.676138 2.54951 0 2.54951 
z
" style="stroke: #e7298a"/>
    </defs>
    <g clip-path="url(#p2a1e975af7)">
     <use xlink:href="#m36d0eda444" x="150.027113" y="127.645616" style="fill: #e7298a; stroke: #e7298a"/>
    </g>
   </g>
   <g id="PathCollection_95">
    <defs>
     <path id="m266b581473" d="M 0 2.598076 
C 0.689018 2.598076 1.349908 2.324327 1.837117 1.837117 
C 2.324327 1.349908 2.598076 0.689018 2.598076 0 
C 2.598076 -0.689018 2.324327 -1.349908 1.837117 -1.837117 
C 1.349908 -2.324327 0.689018 -2.598076 0 -2.598076 
C -0.689018 -2.598076 -1.349908 -2.324327 -1.837117 -1.837117 
C -2.324327 -1.349908 -2.598076 -0.689018 -2.598076 0 
C -2.598076 0.689018 -2.324327 1.349908 -1.837117 1.837117 
C -1.349908 2.324327 -0.689018 2.598076 0 2.598076 
z
" style="stroke: #e7298a"/>
    </defs>
    <g clip-path="url(#p2a1e975af7)">
     <use xlink:href="#m266b581473" x="160.864465" y="119.691264" style="fill: #e7298a; stroke: #e7298a"/>
    </g>
   </g>
   <g id="PathCollection_96">
    <defs>
     <path id="m9a26851029" d="M 0 2.645751 
C 0.701661 2.645751 1.374679 2.366978 1.870829 1.870829 
C 2.366978 1.374679 2.645751 0.701661 2.645751 0 
C 2.645751 -0.701661 2.366978 -1.374679 1.870829 -1.870829 
C 1.374679 -2.366978 0.701661 -2.645751 0 -2.645751 
C -0.701661 -2.645751 -1.374679 -2.366978 -1.870829 -1.870829 
C -2.366978 -1.374679 -2.645751 -0.701661 -2.645751 0 
C -2.645751 0.701661 -2.366978 1.374679 -1.870829 1.870829 
C -1.374679 2.366978 -0.701661 2.645751 0 2.645751 
z
" style="stroke: #e7298a"/>
    </defs>
    <g clip-path="url(#p2a1e975af7)">
     <use xlink:href="#m9a26851029" x="168.415691" y="107.802365" style="fill: #e7298a; stroke: #e7298a"/>
    </g>
   </g>
   <g id="line2d_5">
    <path d="M 40.761575 93.643685 
L 45.875982 120.696775 
L 60.001208 143.397181 
L 80.021738 158.804911 
L 102.188087 166.053393 
L 123.342132 166.057176 
L 141.551096 160.664871 
L 156.077422 151.822848 
L 166.993104 141.084012 
L 174.746257 129.472673 
L 179.851114 117.557886 
L 182.734487 105.59254 
L 183.665982 93.643681 
L 182.734487 81.694832 
L 179.851114 69.729489 
L 174.746257 57.814702 
L 166.993104 46.203352 
L 156.077422 35.464522 
L 141.551096 26.622499 
L 123.342132 21.230183 
L 102.188087 21.233976 
L 80.021738 28.482459 
L 60.001208 43.890171 
L 45.875982 66.590618 
" clip-path="url(#p2a1e975af7)" style="fill: none; stroke: #1b9e77; stroke-width: 1.5; stroke-linecap: square"/>
   </g>
   <g id="line2d_6">
    <path d="M 177.127152 93.643685 
L 174.930646 79.507786 
L 168.615139 66.822889 
L 158.960061 56.828992 
L 147.133454 50.363021 
L 134.471587 47.731078 
L 122.222575 48.706705 
L 111.324524 52.676136 
L 102.317379 58.86724 
L 95.398017 66.554226 
L 90.556888 75.164646 
L 87.708041 84.290379 
L 86.7692 93.643688 
L 87.708041 102.99699 
L 90.556888 112.12272 
L 95.398017 120.733141 
L 102.317379 128.42013 
L 111.324524 134.611239 
L 122.222575 138.580665 
L 134.471587 139.556308 
L 147.133454 136.924349 
L 158.960061 130.458378 
L 168.615139 120.464495 
L 174.930646 107.779573 
" clip-path="url(#p2a1e975af7)" style="fill: none; stroke: #d95f02; stroke-width: 1.5; stroke-linecap: square"/>
   </g>
   <g id="line2d_7">
    <path d="M 41.784163 93.643685 
L 45.642374 117.97925 
L 56.685144 139.676944 
L 73.418262 156.554313 
L 93.691501 167.251761 
L 115.163636 171.403096 
L 135.766718 169.535366 
L 154.027105 162.743437 
L 169.131575 152.300453 
L 180.772324 139.366731 
L 188.950086 124.859976 
L 193.780931 109.453925 
L 195.37652 93.64368 
L 193.780931 77.833454 
L 188.950086 62.427403 
L 180.772324 47.920638 
L 169.131575 34.986905 
L 154.027105 24.543933 
L 135.766718 17.752004 
L 115.163636 15.884274 
L 93.691501 20.035597 
L 73.418262 30.733063 
L 56.685144 47.610409 
L 45.642374 69.308137 
" clip-path="url(#p2a1e975af7)" style="fill: none; stroke: #7570b3; stroke-width: 1.5; stroke-linecap: square"/>
   </g>
   <g id="line2d_8">
    <path d="M 171.127072 93.643685 
L 168.415691 79.484996 
L 160.864465 67.596117 
L 150.027113 59.641753 
L 137.949083 56.295668 
L 126.570317 57.200654 
L 117.251051 61.255105 
L 110.569889 67.07284 
L 106.408189 73.412252 
L 104.212601 79.433474 
L 103.285054 84.759455 
L 103.003879 89.403957 
L 102.958333 93.643686 
L 103.003879 97.883416 
L 103.285054 102.527916 
L 104.212601 107.853885 
L 106.408189 113.875108 
L 110.569889 120.214524 
L 117.251051 126.032264 
L 126.570317 130.086733 
L 137.949083 130.991696 
L 150.027113 127.645616 
L 160.864465 119.691264 
L 168.415691 107.802365 
" clip-path="url(#p2a1e975af7)" style="fill: none; stroke: #e7298a; stroke-width: 1.5; stroke-linecap: square"/>
   </g>
  </g>
 </g>
 <defs>
  <clipPath id="p2a1e975af7">
   <rect x="30.938095" y="10.8" width="174.261905" height="165.68737"/>
  </clipPath>
 </defs>
</svg>
