<?xml version="1.0" encoding="utf-8" standalone="no"?>
<!DOCTYPE svg PUBLIC "-//W3C//DTD SVG 1.1//EN"
  "http://www.w3.org/Graphics/SVG/1.1/DTD/svg11.dtd">
<svg xmlns:xlink="http://www.w3.org/1999/xlink" width="288pt" height="216pt" viewBox="0 0 288 216" xmlns="http://www.w3.org/2000/svg" version="1.1">
 <metadata>
  <rdf:RDF xmlns:dc="http://purl.org/dc/elements/1.1/" xmlns:cc="http://creativecommons.org/ns#" xmlns:rdf="http://www.w3.org/1999/02/22-rdf-syntax-ns#">
   <cc:Work>
    <dc:type rdf:resource="http://purl.org/dc/dcmitype/StillImage"/>
    <dc:date>2022-05-14T11:03:00.845152</dc:date>
    <dc:format>image/svg+xml</dc:format>
    <dc:creator>
     <cc:Agent>
      <dc:title>Matplotlib v3.5.1, https://matplotlib.org/</dc:title>
     </cc:Agent>
    </dc:creator>
   </cc:Work>
  </rdf:RDF>
 </metadata>
 <defs>
  <style type="text/css">*{stroke-linejoin: round; stroke-linecap: butt}</style>
 </defs>
 <g id="figure_1">
  <g id="patch_1">
   <path d="M 0 216 
L 288 216 
L 288 0 
L 0 0 
L 0 216 
z
" style="fill: none"/>
  </g>
  <g id="axes_1">
   <g id="patch_2">
    <path d="M 67.208257 154.774739 
L 277.2 154.774739 
L 277.2 17.718498 
L 67.208257 17.718498 
z
" style="fill: #ffffff"/>
   </g>
   <g id="matplotlib.axis_1">
    <g id="xtick_1">
     <g id="line2d_1">
      <defs>
       <path id="mbb686134ee" d="M 0 0 
L 0 6 
" style="stroke: #000000; stroke-width: 2"/>
      </defs>
      <g>
       <use xlink:href="#mbb686134ee" x="77.707844" y="154.774739" style="stroke: #000000; stroke-width: 2"/>
      </g>
     </g>
     <g id="text_1">
      <!-- $\mathdefault{0}$ -->
      <g transform="translate(73.138796 179.611736)scale(0.2 -0.2)">
       <defs>
        <path id="CMR17-30" d="M 2688 2038 
C 2688 2430 2682 3099 2413 3613 
C 2176 4063 1798 4224 1466 4224 
C 1158 4224 768 4082 525 3620 
C 269 3137 243 2539 243 2038 
C 243 1671 250 1112 448 623 
C 723 -39 1216 -128 1466 -128 
C 1760 -128 2208 -7 2470 604 
C 2662 1048 2688 1568 2688 2038 
z
M 1466 -26 
C 1056 -26 813 328 723 816 
C 653 1196 653 1749 653 2109 
C 653 2604 653 3015 736 3407 
C 858 3954 1216 4121 1466 4121 
C 1728 4121 2067 3947 2189 3420 
C 2272 3054 2278 2623 2278 2109 
C 2278 1691 2278 1176 2202 797 
C 2067 96 1690 -26 1466 -26 
z
" transform="scale(0.015625)"/>
       </defs>
       <use xlink:href="#CMR17-30" transform="scale(0.996264)"/>
      </g>
     </g>
    </g>
    <g id="xtick_2">
     <g id="line2d_2">
      <g>
       <use xlink:href="#mbb686134ee" x="182.703715" y="154.774739" style="stroke: #000000; stroke-width: 2"/>
      </g>
     </g>
     <g id="text_2">
      <!-- $\mathdefault{50}$ -->
      <g transform="translate(173.56562 179.611736)scale(0.2 -0.2)">
       <defs>
        <path id="CMR17-35" d="M 730 3750 
C 794 3724 1056 3641 1325 3641 
C 1920 3641 2246 3961 2432 4140 
C 2432 4191 2432 4224 2394 4224 
C 2387 4224 2374 4224 2323 4198 
C 2099 4102 1837 4032 1517 4032 
C 1325 4032 1037 4055 723 4191 
C 653 4224 640 4224 634 4224 
C 602 4224 595 4217 595 4090 
L 595 2231 
C 595 2113 595 2080 659 2080 
C 691 2080 704 2093 736 2139 
C 941 2435 1222 2560 1542 2560 
C 1766 2560 2246 2415 2246 1293 
C 2246 1087 2246 716 2054 422 
C 1894 159 1645 25 1370 25 
C 947 25 518 319 403 812 
C 429 806 480 793 506 793 
C 589 793 749 838 749 1036 
C 749 1209 627 1280 506 1280 
C 358 1280 262 1190 262 1011 
C 262 454 704 -128 1382 -128 
C 2042 -128 2669 441 2669 1267 
C 2669 2054 2170 2662 1549 2662 
C 1222 2662 947 2540 730 2304 
L 730 3750 
z
" transform="scale(0.015625)"/>
       </defs>
       <use xlink:href="#CMR17-35" transform="scale(0.996264)"/>
       <use xlink:href="#CMR17-30" transform="translate(45.690477 0)scale(0.996264)"/>
      </g>
     </g>
    </g>
    <g id="text_3">
     <!-- Epochs -->
     <g transform="translate(144.013867 201.324366)scale(0.2 -0.2)">
      <defs>
       <path id="CMSS17-45" d="M 1958 435 
C 1446 435 1216 435 1101 428 
L 1101 2105 
L 3085 2105 
L 3085 2496 
L 1101 2496 
L 1101 3993 
L 1926 3993 
C 2003 3993 2080 3987 2157 3987 
L 3251 3987 
L 3251 4403 
L 563 4403 
L 563 0 
L 3334 0 
L 3334 441 
L 1958 435 
z
" transform="scale(0.015625)"/>
       <path id="CMSS17-70" d="M 966 275 
C 1178 70 1466 -64 1773 -64 
C 2368 -64 2880 553 2880 1382 
C 2880 2147 2496 2816 1946 2816 
C 1626 2816 1242 2700 954 2470 
L 954 2764 
L 480 2764 
L 480 -1280 
L 966 -1280 
L 966 275 
z
M 966 2088 
C 1018 2166 1235 2412 1587 2412 
C 2035 2412 2394 1946 2394 1382 
C 2394 741 1958 326 1530 326 
C 1402 326 1267 358 1139 468 
C 966 624 966 721 966 812 
L 966 2088 
z
" transform="scale(0.015625)"/>
       <path id="CMSS17-6f" d="M 2829 1356 
C 2829 2175 2221 2816 1504 2816 
C 768 2816 173 2156 173 1356 
C 173 544 787 -64 1498 -64 
C 2227 -64 2829 563 2829 1356 
z
M 1504 339 
C 1050 339 659 710 659 1407 
C 659 2150 1114 2425 1498 2425 
C 1914 2425 2342 2124 2342 1407 
C 2342 684 1926 339 1504 339 
z
" transform="scale(0.015625)"/>
       <path id="CMSS17-63" d="M 2464 2540 
C 2464 2585 2170 2713 2093 2739 
C 1882 2816 1613 2816 1542 2816 
C 710 2816 211 2092 211 1363 
C 211 595 768 -64 1517 -64 
C 1946 -64 2253 76 2502 243 
L 2464 665 
C 2189 454 1869 339 1523 339 
C 1024 339 698 774 698 1369 
C 698 1830 909 2412 1549 2412 
C 1901 2412 2099 2342 2394 2143 
L 2464 2540 
z
" transform="scale(0.015625)"/>
       <path id="CMSS17-68" d="M 2618 1878 
C 2618 2283 2522 2816 1798 2816 
C 1395 2816 1133 2617 947 2399 
L 947 4416 
L 474 4416 
L 474 0 
L 960 0 
L 960 1556 
C 960 1962 1114 2425 1549 2425 
C 2112 2425 2131 2045 2131 1826 
L 2131 0 
L 2618 0 
L 2618 1878 
z
" transform="scale(0.015625)"/>
       <path id="CMSS17-73" d="M 2061 2623 
C 1683 2803 1389 2816 1197 2816 
C 742 2816 198 2655 198 2009 
C 198 1363 902 1222 1094 1183 
C 1389 1126 1715 1062 1715 742 
C 1715 339 1254 339 1171 339 
C 915 339 563 409 243 639 
L 166 211 
C 531 0 883 -64 1178 -64 
C 1965 -64 2163 416 2163 780 
C 2163 1094 1984 1305 1862 1401 
C 1651 1567 1574 1587 1050 1695 
C 960 1708 646 1779 646 2067 
C 646 2431 1050 2431 1139 2431 
C 1555 2431 1811 2303 1984 2207 
L 2061 2623 
z
" transform="scale(0.015625)"/>
      </defs>
      <use xlink:href="#CMSS17-45" transform="scale(0.996264)"/>
      <use xlink:href="#CMSS17-70" transform="translate(55.892013 0)scale(0.996264)"/>
      <use xlink:href="#CMSS17-6f" transform="translate(106.699395 0)scale(0.996264)"/>
      <use xlink:href="#CMSS17-63" transform="translate(156.145457 0)scale(0.996264)"/>
      <use xlink:href="#CMSS17-68" transform="translate(197.784279 0)scale(0.996264)"/>
      <use xlink:href="#CMSS17-73" transform="translate(245.989223 0)scale(0.996264)"/>
     </g>
    </g>
   </g>
   <g id="matplotlib.axis_2">
    <g id="ytick_1">
     <g id="line2d_3">
      <defs>
       <path id="m6ad32a9d3d" d="M 0 0 
L -6 0 
" style="stroke: #000000; stroke-width: 2"/>
      </defs>
      <g>
       <use xlink:href="#m6ad32a9d3d" x="67.208257" y="127.363491" style="stroke: #000000; stroke-width: 2"/>
      </g>
     </g>
     <g id="text_4">
      <!-- $\mathdefault{0.6}$ -->
      <g transform="translate(32.51263 134.281989)scale(0.2 -0.2)">
       <defs>
        <path id="CMMI12-3a" d="M 1178 307 
C 1178 492 1024 620 870 620 
C 685 620 557 467 557 313 
C 557 128 710 0 864 0 
C 1050 0 1178 153 1178 307 
z
" transform="scale(0.015625)"/>
        <path id="CMR17-36" d="M 678 2198 
C 678 3712 1395 4076 1811 4076 
C 1946 4076 2272 4049 2400 3782 
C 2298 3782 2106 3782 2106 3558 
C 2106 3385 2246 3328 2336 3328 
C 2394 3328 2566 3353 2566 3571 
C 2566 3987 2246 4224 1805 4224 
C 1043 4224 243 3411 243 2011 
C 243 257 966 -128 1478 -128 
C 2099 -128 2688 431 2688 1295 
C 2688 2101 2170 2688 1517 2688 
C 1126 2688 838 2430 678 1979 
L 678 2198 
z
M 1478 25 
C 691 25 691 1212 691 1450 
C 691 1914 909 2585 1504 2585 
C 1613 2585 1926 2585 2138 2140 
C 2253 1889 2253 1624 2253 1302 
C 2253 954 2253 696 2118 438 
C 1978 173 1773 25 1478 25 
z
" transform="scale(0.015625)"/>
       </defs>
       <use xlink:href="#CMR17-30" transform="scale(0.996264)"/>
       <use xlink:href="#CMMI12-3a" transform="translate(45.690477 0)scale(0.996264)"/>
       <use xlink:href="#CMR17-36" transform="translate(72.787654 0)scale(0.996264)"/>
      </g>
     </g>
    </g>
    <g id="ytick_2">
     <g id="line2d_4">
      <g>
       <use xlink:href="#m6ad32a9d3d" x="67.208257" y="72.540995" style="stroke: #000000; stroke-width: 2"/>
      </g>
     </g>
     <g id="text_5">
      <!-- $\mathdefault{0.8}$ -->
      <g transform="translate(32.51263 79.459493)scale(0.2 -0.2)">
       <defs>
        <path id="CMR17-38" d="M 1741 2289 
C 2144 2494 2554 2803 2554 3298 
C 2554 3884 1990 4224 1472 4224 
C 890 4224 378 3800 378 3215 
C 378 3054 416 2777 666 2533 
C 730 2469 998 2276 1171 2154 
C 883 2006 211 1652 211 945 
C 211 282 838 -128 1459 -128 
C 2144 -128 2720 366 2720 1022 
C 2720 1607 2330 1877 2074 2051 
L 1741 2289 
z
M 902 2855 
C 851 2887 595 3086 595 3388 
C 595 3781 998 4076 1459 4076 
C 1965 4076 2336 3716 2336 3298 
C 2336 2700 1670 2359 1638 2359 
C 1632 2359 1626 2359 1574 2398 
L 902 2855 
z
M 2080 1536 
C 2176 1466 2483 1253 2483 861 
C 2483 385 2010 25 1472 25 
C 890 25 448 443 448 951 
C 448 1459 838 1884 1280 2083 
L 2080 1536 
z
" transform="scale(0.015625)"/>
       </defs>
       <use xlink:href="#CMR17-30" transform="scale(0.996264)"/>
       <use xlink:href="#CMMI12-3a" transform="translate(45.690477 0)scale(0.996264)"/>
       <use xlink:href="#CMR17-38" transform="translate(72.787654 0)scale(0.996264)"/>
      </g>
     </g>
    </g>
    <g id="ytick_3">
     <g id="line2d_5">
      <g>
       <use xlink:href="#m6ad32a9d3d" x="67.208257" y="17.718498" style="stroke: #000000; stroke-width: 2"/>
      </g>
     </g>
     <g id="text_6">
      <!-- $\mathdefault{1.0}$ -->
      <g transform="translate(32.51263 24.636997)scale(0.2 -0.2)">
       <defs>
        <path id="CMR17-31" d="M 1702 4083 
C 1702 4217 1696 4224 1606 4224 
C 1357 3927 979 3833 621 3820 
C 602 3820 570 3820 563 3808 
C 557 3795 557 3782 557 3648 
C 755 3648 1088 3686 1344 3839 
L 1344 467 
C 1344 243 1331 166 781 166 
L 589 166 
L 589 0 
C 896 6 1216 12 1523 12 
C 1830 12 2150 6 2458 0 
L 2458 166 
L 2266 166 
C 1715 166 1702 236 1702 467 
L 1702 4083 
z
" transform="scale(0.015625)"/>
       </defs>
       <use xlink:href="#CMR17-31" transform="scale(0.996264)"/>
       <use xlink:href="#CMMI12-3a" transform="translate(45.690477 0)scale(0.996264)"/>
       <use xlink:href="#CMR17-30" transform="translate(72.787654 0)scale(0.996264)"/>
      </g>
     </g>
    </g>
    <g id="text_7">
     <!-- tr_acc -->
     <g transform="translate(24.636997 109.013439)rotate(-90)scale(0.2 -0.2)">
      <defs>
       <path id="CMSS17-74" d="M 1069 2380 
L 1901 2380 
L 1901 2752 
L 1069 2752 
L 1069 3520 
L 614 3520 
L 614 2752 
L 109 2752 
L 109 2380 
L 602 2380 
L 602 751 
C 602 384 685 -64 1107 -64 
C 1427 -64 1722 25 2003 172 
L 1901 551 
C 1747 416 1562 339 1363 339 
C 1082 339 1069 699 1069 860 
L 1069 2380 
z
" transform="scale(0.015625)"/>
       <path id="CMSS17-72" d="M 954 1369 
C 954 1974 1395 2379 1958 2392 
L 1958 2816 
C 1549 2809 1165 2604 934 2270 
L 934 2783 
L 480 2783 
L 480 0 
L 954 0 
L 954 1369 
z
" transform="scale(0.015625)"/>
       <path id="CMSS17-61" d="M 2406 1789 
C 2406 2399 1978 2816 1402 2816 
C 1120 2816 813 2764 461 2559 
L 499 2133 
C 659 2250 934 2438 1395 2438 
C 1722 2438 1920 2185 1920 1782 
L 1920 1536 
C 896 1504 256 1209 256 711 
C 256 452 416 -64 947 -64 
C 1043 -64 1562 -52 1933 224 
L 1933 -13 
L 2406 -13 
L 2406 1789 
z
M 1920 824 
C 1920 711 1920 559 1728 446 
C 1562 339 1350 326 1261 326 
C 941 326 723 503 723 723 
C 723 1165 1722 1209 1920 1216 
L 1920 824 
z
" transform="scale(0.015625)"/>
      </defs>
      <use xlink:href="#CMSS17-74" transform="scale(0.996264)"/>
      <use xlink:href="#CMSS17-72" transform="translate(33.831567 0)scale(0.996264)"/>
      <use xlink:href="#CMSS17-61" transform="translate(99.468835 0)scale(0.996264)"/>
      <use xlink:href="#CMSS17-63" transform="translate(144.390755 0)scale(0.996264)"/>
      <use xlink:href="#CMSS17-63" transform="translate(186.029577 0)scale(0.996264)"/>
      <path d="M 71.36235 0 
L 99.468835 0 
L 99.468835 0.3985 
L 71.36235 0.3985 
L 71.36235 0 
z
"/>
     </g>
    </g>
   </g>
   <g id="line2d_6">
    <path d="M 79.926249 217 
L 81.907679 198.051618 
L 84.007596 182.789035 
L 86.107514 169.839961 
L 88.207431 158.886426 
L 90.307348 146.529436 
L 92.407266 138.634996 
L 94.507183 130.384211 
L 96.607101 122.314339 
L 98.707018 117.177471 
L 100.806936 110.763239 
L 102.906853 106.043022 
L 105.00677 102.945551 
L 107.106688 99.129905 
L 109.206605 94.645425 
L 111.306523 92.096179 
L 113.40644 89.091906 
L 115.506358 86.257583 
L 117.606275 84.881539 
L 119.706192 81.992393 
L 121.80611 79.689848 
L 123.906027 77.661416 
L 126.005945 75.950954 
L 128.105862 73.884146 
L 130.20578 71.94343 
L 132.305697 70.161698 
L 134.405615 69.575098 
L 136.505532 68.231947 
L 138.605449 67.086156 
L 140.705367 65.759452 
L 142.805284 63.846147 
L 144.905202 63.210206 
L 147.005119 61.80675 
L 149.105037 60.946037 
L 151.204954 58.988874 
L 153.304871 57.837601 
L 155.404789 58.46806 
L 157.504706 56.390287 
L 159.604624 55.167746 
L 161.704541 54.597592 
L 163.804459 53.939722 
L 165.904376 52.174437 
L 168.004293 51.724893 
L 170.104211 51.0122 
L 172.204128 49.778694 
L 174.304046 48.830265 
L 176.403963 47.821531 
L 178.503881 47.750262 
L 180.603798 46.922442 
L 182.703715 45.924673 
L 184.803633 45.453199 
L 186.90355 44.071672 
L 189.003468 43.556341 
L 191.103385 42.712074 
L 193.203303 42.103545 
L 195.30322 41.127704 
L 197.403138 41.039988 
L 199.503055 40.310849 
L 201.602972 39.274704 
L 203.70289 38.112467 
L 205.802807 38.397544 
L 207.902725 37.443633 
L 210.002642 37.492973 
L 212.10256 36.018248 
L 214.202477 36.018248 
L 216.302394 35.305555 
L 218.402312 34.483218 
L 220.502229 33.73215 
L 222.602147 34.187176 
L 224.702064 33.320981 
L 226.801982 32.56443 
L 228.901899 32.399963 
L 231.001816 32.180673 
L 233.101734 31.506356 
L 235.201651 31.495392 
L 237.301569 30.870415 
L 239.401486 30.859451 
L 241.501404 30.503105 
L 243.601321 30.207063 
L 245.701238 30.311226 
L 247.801156 30.256403 
L 249.901073 29.867164 
L 252.000991 29.549193 
L 254.100908 29.094166 
L 256.200826 29.373761 
L 258.300743 28.973557 
L 260.400661 28.90777 
L 262.500578 28.913252 
L 264.600495 28.913252 
" clip-path="url(#p9aa18f9f76)" style="fill: none; stroke: #1f77b4; stroke-width: 2; stroke-linecap: square"/>
   </g>
   <g id="line2d_7">
    <path d="M 80.221057 217 
L 81.907679 200.25 
L 84.007596 188.375447 
L 86.107514 177.383537 
L 88.207431 167.745742 
L 90.307348 158.190181 
L 92.407266 151.057774 
L 94.507183 143.185264 
L 96.607101 136.513366 
L 98.707018 129.951113 
L 100.806936 123.690384 
L 102.906853 119.315549 
L 105.00677 114.803657 
L 107.106688 109.743541 
L 109.206605 105.6483 
L 111.306523 102.57824 
L 113.40644 99.650719 
L 115.506358 96.344923 
L 117.606275 93.784712 
L 119.706192 90.769475 
L 121.80611 88.384696 
L 123.906027 86.789362 
L 126.005945 83.845393 
L 128.105862 82.584476 
L 130.20578 79.996854 
L 132.305697 78.209641 
L 134.405615 77.392786 
L 136.505532 75.638466 
L 138.605449 74.55298 
L 140.705367 72.809625 
L 142.805284 71.367793 
L 144.905202 70.446775 
L 147.005119 68.401896 
L 149.105037 67.157426 
L 151.204954 66.302195 
L 153.304871 65.030313 
L 155.404789 64.136706 
L 157.504706 63.484318 
L 159.604624 61.697105 
L 161.704541 60.469081 
L 163.804459 60.156593 
L 165.904376 58.583187 
L 168.004293 57.85953 
L 170.104211 57.552524 
L 172.204128 55.863991 
L 174.304046 55.436376 
L 176.403963 54.657896 
L 178.503881 53.550482 
L 180.603798 52.947435 
L 182.703715 52.075757 
L 184.803633 51.489156 
L 186.90355 50.343366 
L 189.003468 50.315955 
L 191.103385 49.42783 
L 193.203303 49.252398 
L 195.30322 47.761226 
L 197.403138 46.856655 
L 199.503055 46.198785 
L 201.602972 45.793099 
L 203.70289 44.822741 
L 205.802807 44.274516 
L 207.902725 43.770149 
L 210.002642 43.605681 
L 212.10256 42.448926 
L 214.202477 41.961006 
L 216.302394 41.105775 
L 218.402312 40.743947 
L 220.502229 40.535621 
L 222.602147 39.861305 
L 224.702064 39.395313 
L 226.801982 39.066378 
L 228.901899 38.287899 
L 231.001816 37.931553 
L 233.101734 37.07084 
L 235.201651 36.621295 
L 237.301569 36.51165 
L 239.401486 36.380076 
L 241.501404 36.221091 
L 243.601321 35.645455 
L 245.701238 35.431647 
L 247.801156 35.689313 
L 249.901073 35.19591 
L 252.000991 35.256215 
L 254.100908 34.505147 
L 256.200826 34.740883 
L 258.300743 34.499665 
L 260.400661 34.450324 
L 262.500578 34.559969 
L 264.600495 34.132354 
" clip-path="url(#p9aa18f9f76)" style="fill: none; stroke: #ff7f0e; stroke-width: 2; stroke-linecap: square"/>
   </g>
   <g id="line2d_8">
    <path d="M 78.638355 217 
L 79.807761 198.117405 
L 81.907679 179.866996 
L 84.007596 166.983709 
L 86.107514 157.033426 
L 88.207431 149.023859 
L 90.307348 143.684148 
L 92.407266 137.763319 
L 94.507183 132.785436 
L 96.607101 128.021361 
L 98.707018 124.43597 
L 100.806936 121.075351 
L 102.906853 118.526105 
L 105.00677 116.300311 
L 107.106688 112.753296 
L 109.206605 110.966082 
L 111.306523 107.638357 
L 113.40644 105.516726 
L 115.506358 104.617637 
L 117.606275 102.304128 
L 119.706192 100.752651 
L 121.80611 99.398536 
L 123.906027 97.43589 
L 126.005945 98.488482 
L 128.105862 95.670606 
L 130.20578 95.341671 
L 132.305697 94.349384 
L 134.405615 92.918517 
L 136.505532 92.649886 
L 138.605449 91.734351 
L 140.705367 90.92846 
L 142.805284 90.796886 
L 144.905202 89.398912 
L 147.005119 88.587539 
L 149.105037 87.655557 
L 151.204954 87.249871 
L 153.304871 87.003169 
L 155.404789 85.511997 
L 157.504706 84.810269 
L 159.604624 84.229151 
L 161.704541 83.516459 
L 163.804459 82.891482 
L 165.904376 82.288435 
L 168.004293 80.720511 
L 170.104211 80.090052 
L 172.204128 79.859798 
L 174.304046 77.502431 
L 176.403963 77.853295 
L 178.503881 77.880706 
L 180.603798 76.937759 
L 182.703715 75.764558 
L 184.803633 75.11217 
L 186.90355 75.386282 
L 189.003468 74.40496 
L 191.103385 73.736125 
L 193.203303 73.725161 
L 195.30322 73.220794 
L 197.403138 71.38424 
L 199.503055 71.746069 
L 201.602972 71.329418 
L 203.70289 71.071752 
L 205.802807 70.178145 
L 207.902725 70.183627 
L 210.002642 70.485151 
L 212.10256 69.196822 
L 214.202477 68.621186 
L 216.302394 68.330627 
L 218.402312 67.530219 
L 220.502229 67.94687 
L 222.602147 67.491843 
L 224.702064 66.247372 
L 226.801982 66.658541 
L 228.901899 66.488591 
L 231.001816 66.044529 
L 233.101734 65.222191 
L 235.201651 64.372443 
L 237.301569 64.942597 
L 239.401486 64.794576 
L 241.501404 64.498535 
L 243.601321 63.900969 
L 245.701238 64.038026 
L 247.801156 64.142188 
L 249.901073 63.462389 
L 252.000991 63.528176 
L 254.100908 63.358227 
L 256.200826 63.478836 
L 258.300743 63.144419 
L 260.400661 63.29244 
L 262.500578 62.930611 
L 264.600495 63.17183 
" clip-path="url(#p9aa18f9f76)" style="fill: none; stroke: #2ca02c; stroke-width: 2; stroke-linecap: square"/>
   </g>
   <g id="patch_3">
    <path d="M 67.208257 154.774739 
L 67.208257 17.718498 
" style="fill: none; stroke: #000000; stroke-width: 3; stroke-linejoin: miter; stroke-linecap: square"/>
   </g>
   <g id="patch_4">
    <path d="M 67.208257 154.774739 
L 277.2 154.774739 
" style="fill: none; stroke: #000000; stroke-width: 3; stroke-linejoin: miter; stroke-linecap: square"/>
   </g>
   <g id="legend_1">
    <g id="patch_5">
     <path d="M 141.941087 148.774739 
L 268.8 148.774739 
Q 271.2 148.774739 271.2 146.374739 
L 271.2 97.400952 
Q 271.2 95.000952 268.8 95.000952 
L 141.941087 95.000952 
Q 139.541087 95.000952 139.541087 97.400952 
L 139.541087 146.374739 
Q 139.541087 148.774739 141.941087 148.774739 
L 141.941087 148.774739 
z
" style="fill: none; opacity: 0"/>
    </g>
    <g id="line2d_9">
     <path d="M 144.341087 104.000952 
L 156.341087 104.000952 
L 168.341087 104.000952 
" style="fill: none; stroke: #1f77b4; stroke-width: 2; stroke-linecap: square"/>
    </g>
    <g id="text_8">
     <!-- Holomorphic N=4 -->
     <g transform="translate(177.941087 108.200952)scale(0.12 -0.12)">
      <defs>
       <path id="CMSS17-48" d="M 3674 4416 
L 3136 4416 
L 3136 2496 
L 1101 2496 
L 1101 4416 
L 563 4416 
L 563 0 
L 1101 0 
L 1101 2105 
L 3136 2105 
L 3136 0 
L 3674 0 
L 3674 4416 
z
" transform="scale(0.015625)"/>
       <path id="CMSS17-6c" d="M 947 4416 
L 474 4416 
L 474 0 
L 947 0 
L 947 4416 
z
" transform="scale(0.015625)"/>
       <path id="CMSS17-6d" d="M 4288 1878 
C 4288 2309 4179 2816 3462 2816 
C 2982 2816 2694 2515 2566 2328 
C 2451 2668 2182 2816 1798 2816 
C 1363 2816 1088 2566 941 2386 
L 941 2783 
L 474 2783 
L 474 0 
L 960 0 
L 960 1556 
C 960 1936 1101 2425 1555 2425 
C 2138 2425 2138 2013 2138 1826 
L 2138 0 
L 2624 0 
L 2624 1556 
C 2624 1936 2765 2425 3219 2425 
C 3802 2425 3802 2013 3802 1826 
L 3802 0 
L 4288 0 
L 4288 1878 
z
" transform="scale(0.015625)"/>
       <path id="CMSS17-69" d="M 979 4224 
L 442 4224 
L 442 3686 
L 979 3686 
L 979 4224 
z
M 947 2752 
L 474 2752 
L 474 0 
L 947 0 
L 947 2752 
z
" transform="scale(0.015625)"/>
       <path id="CMSS17-4e" d="M 1466 4179 
L 1350 4416 
L 563 4416 
L 563 0 
L 1062 0 
L 1062 3925 
L 1069 3931 
C 1114 3817 1139 3759 1402 3193 
L 2771 236 
L 2886 0 
L 3674 0 
L 3674 4416 
L 3174 4416 
L 3174 490 
L 3168 484 
C 3123 598 3098 655 2835 1222 
L 1466 4179 
z
" transform="scale(0.015625)"/>
       <path id="CMSS17-3d" d="M 4147 2048 
C 4243 2048 4339 2048 4339 2156 
C 4339 2272 4230 2272 4122 2272 
L 550 2272 
C 442 2272 333 2272 333 2156 
C 333 2048 429 2048 525 2048 
L 4147 2048 
z
M 4122 927 
C 4230 927 4339 927 4339 1043 
C 4339 1152 4243 1152 4147 1152 
L 525 1152 
C 429 1152 333 1152 333 1043 
C 333 927 442 927 550 927 
L 4122 927 
z
" transform="scale(0.015625)"/>
       <path id="CMSS17-34" d="M 2253 1088 
L 2835 1088 
L 2835 1478 
L 2253 1478 
L 2253 4224 
L 1690 4224 
L 166 1478 
L 166 1088 
L 1747 1088 
L 1747 0 
L 2253 0 
L 2253 1088 
z
M 659 1478 
C 1030 2139 1766 3474 1766 3927 
L 1766 1478 
L 659 1478 
z
" transform="scale(0.015625)"/>
      </defs>
      <use xlink:href="#CMSS17-48" transform="scale(0.996264)"/>
      <use xlink:href="#CMSS17-6f" transform="translate(66.061519 0)scale(0.996264)"/>
      <use xlink:href="#CMSS17-6c" transform="translate(112.905143 0)scale(0.996264)"/>
      <use xlink:href="#CMSS17-6f" transform="translate(135.085866 0)scale(0.996264)"/>
      <use xlink:href="#CMSS17-6d" transform="translate(181.929489 0)scale(0.996264)"/>
      <use xlink:href="#CMSS17-6f" transform="translate(256.158744 0)scale(0.996264)"/>
      <use xlink:href="#CMSS17-72" transform="translate(300.399913 0)scale(0.996264)"/>
      <use xlink:href="#CMSS17-70" transform="translate(332.309686 0)scale(0.996264)"/>
      <use xlink:href="#CMSS17-68" transform="translate(380.514629 0)scale(0.996264)"/>
      <use xlink:href="#CMSS17-69" transform="translate(428.719572 0)scale(0.996264)"/>
      <use xlink:href="#CMSS17-63" transform="translate(450.900295 0)scale(0.996264)"/>
      <use xlink:href="#CMSS17-4e" transform="translate(523.76823 0)scale(0.996264)"/>
      <use xlink:href="#CMSS17-3d" transform="translate(589.829749 0)scale(0.996264)"/>
      <use xlink:href="#CMSS17-34" transform="translate(662.697684 0)scale(0.996264)"/>
     </g>
    </g>
    <g id="line2d_10">
     <path d="M 144.341087 120.725548 
L 156.341087 120.725548 
L 168.341087 120.725548 
" style="fill: none; stroke: #ff7f0e; stroke-width: 2; stroke-linecap: square"/>
    </g>
    <g id="text_9">
     <!-- Holomorphic N=2 -->
     <g transform="translate(177.941087 124.925548)scale(0.12 -0.12)">
      <defs>
       <path id="CMSS17-32" d="M 1651 1353 
C 1830 1538 2099 1761 2285 1984 
C 2464 2201 2701 2507 2701 2953 
C 2701 3655 2227 4288 1421 4288 
C 787 4288 422 3891 250 3272 
L 499 2928 
C 640 3508 838 3878 1338 3878 
C 1888 3878 2195 3431 2195 2940 
C 2195 2354 1747 1901 1408 1563 
C 1030 1187 659 805 301 409 
L 301 0 
L 2701 0 
L 2701 435 
L 1613 435 
C 1536 435 1459 428 1382 428 
L 742 428 
L 742 435 
L 1651 1353 
z
" transform="scale(0.015625)"/>
      </defs>
      <use xlink:href="#CMSS17-48" transform="scale(0.996264)"/>
      <use xlink:href="#CMSS17-6f" transform="translate(66.061519 0)scale(0.996264)"/>
      <use xlink:href="#CMSS17-6c" transform="translate(112.905143 0)scale(0.996264)"/>
      <use xlink:href="#CMSS17-6f" transform="translate(135.085866 0)scale(0.996264)"/>
      <use xlink:href="#CMSS17-6d" transform="translate(181.929489 0)scale(0.996264)"/>
      <use xlink:href="#CMSS17-6f" transform="translate(256.158744 0)scale(0.996264)"/>
      <use xlink:href="#CMSS17-72" transform="translate(300.399913 0)scale(0.996264)"/>
      <use xlink:href="#CMSS17-70" transform="translate(332.309686 0)scale(0.996264)"/>
      <use xlink:href="#CMSS17-68" transform="translate(380.514629 0)scale(0.996264)"/>
      <use xlink:href="#CMSS17-69" transform="translate(428.719572 0)scale(0.996264)"/>
      <use xlink:href="#CMSS17-63" transform="translate(450.900295 0)scale(0.996264)"/>
      <use xlink:href="#CMSS17-4e" transform="translate(523.76823 0)scale(0.996264)"/>
      <use xlink:href="#CMSS17-3d" transform="translate(589.829749 0)scale(0.996264)"/>
      <use xlink:href="#CMSS17-32" transform="translate(662.697684 0)scale(0.996264)"/>
     </g>
    </g>
    <g id="line2d_11">
     <path d="M 144.341087 137.450144 
L 156.341087 137.450144 
L 168.341087 137.450144 
" style="fill: none; stroke: #2ca02c; stroke-width: 2; stroke-linecap: square"/>
    </g>
    <g id="text_10">
     <!-- Non holomorphic -->
     <g transform="translate(177.941087 141.650144)scale(0.12 -0.12)">
      <defs>
       <path id="CMSS17-6e" d="M 2618 1878 
C 2618 2283 2522 2816 1798 2816 
C 1389 2816 1120 2604 941 2386 
L 941 2783 
L 474 2783 
L 474 0 
L 960 0 
L 960 1556 
C 960 1962 1114 2425 1549 2425 
C 2112 2425 2131 2045 2131 1826 
L 2131 0 
L 2618 0 
L 2618 1878 
z
" transform="scale(0.015625)"/>
      </defs>
      <use xlink:href="#CMSS17-4e" transform="scale(0.996264)"/>
      <use xlink:href="#CMSS17-6f" transform="translate(66.061519 0)scale(0.996264)"/>
      <use xlink:href="#CMSS17-6e" transform="translate(112.905143 0)scale(0.996264)"/>
      <use xlink:href="#CMSS17-68" transform="translate(192.339199 0)scale(0.996264)"/>
      <use xlink:href="#CMSS17-6f" transform="translate(240.544142 0)scale(0.996264)"/>
      <use xlink:href="#CMSS17-6c" transform="translate(287.387765 0)scale(0.996264)"/>
      <use xlink:href="#CMSS17-6f" transform="translate(309.568488 0)scale(0.996264)"/>
      <use xlink:href="#CMSS17-6d" transform="translate(356.412112 0)scale(0.996264)"/>
      <use xlink:href="#CMSS17-6f" transform="translate(430.641366 0)scale(0.996264)"/>
      <use xlink:href="#CMSS17-72" transform="translate(474.882536 0)scale(0.996264)"/>
      <use xlink:href="#CMSS17-70" transform="translate(506.792308 0)scale(0.996264)"/>
      <use xlink:href="#CMSS17-68" transform="translate(554.997252 0)scale(0.996264)"/>
      <use xlink:href="#CMSS17-69" transform="translate(603.202195 0)scale(0.996264)"/>
      <use xlink:href="#CMSS17-63" transform="translate(625.382918 0)scale(0.996264)"/>
     </g>
    </g>
   </g>
  </g>
 </g>
 <defs>
  <clipPath id="p9aa18f9f76">
   <rect x="67.208257" y="17.718498" width="209.991743" height="137.056241"/>
  </clipPath>
 </defs>
</svg>
