<?xml version="1.0" encoding="utf-8" standalone="no"?>
<!DOCTYPE svg PUBLIC "-//W3C//DTD SVG 1.1//EN"
  "http://www.w3.org/Graphics/SVG/1.1/DTD/svg11.dtd">
<svg xmlns:xlink="http://www.w3.org/1999/xlink" width="360pt" height="216pt" viewBox="0 0 360 216" xmlns="http://www.w3.org/2000/svg" version="1.1">
 <metadata>
  <rdf:RDF xmlns:dc="http://purl.org/dc/elements/1.1/" xmlns:cc="http://creativecommons.org/ns#" xmlns:rdf="http://www.w3.org/1999/02/22-rdf-syntax-ns#">
   <cc:Work>
    <dc:type rdf:resource="http://purl.org/dc/dcmitype/StillImage"/>
    <dc:date>2022-05-17T15:11:57.379615</dc:date>
    <dc:format>image/svg+xml</dc:format>
    <dc:creator>
     <cc:Agent>
      <dc:title>Matplotlib v3.5.1, https://matplotlib.org/</dc:title>
     </cc:Agent>
    </dc:creator>
   </cc:Work>
  </rdf:RDF>
 </metadata>
 <defs>
  <style type="text/css">*{stroke-linejoin: round; stroke-linecap: butt}</style>
 </defs>
 <g id="figure_1">
  <g id="patch_1">
   <path d="M 0 216 
L 360 216 
L 360 0 
L 0 0 
L 0 216 
z
" style="fill: none"/>
  </g>
  <g id="axes_1">
   <g id="patch_2">
    <path d="M 76.346352 152.562089 
L 344.630952 152.562089 
L 344.630952 16.103845 
L 76.346352 16.103845 
z
" style="fill: #ffffff"/>
   </g>
   <g id="matplotlib.axis_1">
    <g id="xtick_1">
     <g id="line2d_1">
      <defs>
       <path id="m7beec221bb" d="M 0 0 
L 0 6 
" style="stroke: #000000; stroke-width: 2"/>
      </defs>
      <g>
       <use xlink:href="#m7beec221bb" x="76.346352" y="152.562089" style="stroke: #000000; stroke-width: 2"/>
      </g>
     </g>
     <g id="text_1">
      <!-- $\mathdefault{0}$ -->
      <g transform="translate(71.777304 177.399086)scale(0.2 -0.2)">
       <defs>
        <path id="CMR17-30" d="M 2688 2038 
C 2688 2430 2682 3099 2413 3613 
C 2176 4063 1798 4224 1466 4224 
C 1158 4224 768 4082 525 3620 
C 269 3137 243 2539 243 2038 
C 243 1671 250 1112 448 623 
C 723 -39 1216 -128 1466 -128 
C 1760 -128 2208 -7 2470 604 
C 2662 1048 2688 1568 2688 2038 
z
M 1466 -26 
C 1056 -26 813 328 723 816 
C 653 1196 653 1749 653 2109 
C 653 2604 653 3015 736 3407 
C 858 3954 1216 4121 1466 4121 
C 1728 4121 2067 3947 2189 3420 
C 2272 3054 2278 2623 2278 2109 
C 2278 1691 2278 1176 2202 797 
C 2067 96 1690 -26 1466 -26 
z
" transform="scale(0.015625)"/>
       </defs>
       <use xlink:href="#CMR17-30" transform="scale(0.996264)"/>
      </g>
     </g>
    </g>
    <g id="xtick_2">
     <g id="line2d_2">
      <g>
       <use xlink:href="#m7beec221bb" x="143.417502" y="152.562089" style="stroke: #000000; stroke-width: 2"/>
      </g>
     </g>
     <g id="text_2">
      <!-- $\mathdefault{1}$ -->
      <g transform="translate(138.848454 177.399086)scale(0.2 -0.2)">
       <defs>
        <path id="CMR17-31" d="M 1702 4083 
C 1702 4217 1696 4224 1606 4224 
C 1357 3927 979 3833 621 3820 
C 602 3820 570 3820 563 3808 
C 557 3795 557 3782 557 3648 
C 755 3648 1088 3686 1344 3839 
L 1344 467 
C 1344 243 1331 166 781 166 
L 589 166 
L 589 0 
C 896 6 1216 12 1523 12 
C 1830 12 2150 6 2458 0 
L 2458 166 
L 2266 166 
C 1715 166 1702 236 1702 467 
L 1702 4083 
z
" transform="scale(0.015625)"/>
       </defs>
       <use xlink:href="#CMR17-31" transform="scale(0.996264)"/>
      </g>
     </g>
    </g>
    <g id="xtick_3">
     <g id="line2d_3">
      <g>
       <use xlink:href="#m7beec221bb" x="210.488652" y="152.562089" style="stroke: #000000; stroke-width: 2"/>
      </g>
     </g>
     <g id="text_3">
      <!-- $\mathdefault{2}$ -->
      <g transform="translate(205.919604 177.399086)scale(0.2 -0.2)">
       <defs>
        <path id="CMR17-32" d="M 2669 990 
L 2554 990 
C 2490 537 2438 460 2413 422 
C 2381 371 1920 371 1830 371 
L 602 371 
C 832 620 1280 1073 1824 1596 
C 2214 1966 2669 2400 2669 3033 
C 2669 3788 2067 4224 1395 4224 
C 691 4224 262 3603 262 3027 
C 262 2777 448 2745 525 2745 
C 589 2745 781 2783 781 3007 
C 781 3206 614 3264 525 3264 
C 486 3264 448 3257 422 3244 
C 544 3788 915 4057 1306 4057 
C 1862 4057 2227 3616 2227 3033 
C 2227 2477 1901 1998 1536 1583 
L 262 147 
L 262 0 
L 2515 0 
L 2669 990 
z
" transform="scale(0.015625)"/>
       </defs>
       <use xlink:href="#CMR17-32" transform="scale(0.996264)"/>
      </g>
     </g>
    </g>
    <g id="xtick_4">
     <g id="line2d_4">
      <g>
       <use xlink:href="#m7beec221bb" x="277.559802" y="152.562089" style="stroke: #000000; stroke-width: 2"/>
      </g>
     </g>
     <g id="text_4">
      <!-- $\mathdefault{3}$ -->
      <g transform="translate(272.990755 177.399086)scale(0.2 -0.2)">
       <defs>
        <path id="CMR17-33" d="M 1414 2176 
C 1984 2176 2234 1673 2234 1094 
C 2234 322 1824 25 1453 25 
C 1114 25 563 193 390 691 
C 422 678 454 678 486 678 
C 640 678 755 780 755 947 
C 755 1132 614 1216 486 1216 
C 378 1216 211 1164 211 927 
C 211 335 787 -128 1466 -128 
C 2176 -128 2720 432 2720 1087 
C 2720 1718 2208 2176 1600 2246 
C 2086 2347 2554 2776 2554 3353 
C 2554 3856 2048 4224 1472 4224 
C 890 4224 378 3862 378 3347 
C 378 3123 544 3084 627 3084 
C 762 3084 877 3167 877 3334 
C 877 3500 762 3584 627 3584 
C 602 3584 570 3584 544 3571 
C 730 3999 1235 4076 1459 4076 
C 1683 4076 2106 3966 2106 3347 
C 2106 3167 2080 2851 1862 2574 
C 1670 2329 1453 2316 1242 2297 
C 1210 2297 1062 2284 1037 2284 
C 992 2278 966 2272 966 2227 
C 966 2182 973 2176 1101 2176 
L 1414 2176 
z
" transform="scale(0.015625)"/>
       </defs>
       <use xlink:href="#CMR17-33" transform="scale(0.996264)"/>
      </g>
     </g>
    </g>
    <g id="xtick_5">
     <g id="line2d_5">
      <g>
       <use xlink:href="#m7beec221bb" x="344.630952" y="152.562089" style="stroke: #000000; stroke-width: 2"/>
      </g>
     </g>
     <g id="text_5">
      <!-- $\mathdefault{4}$ -->
      <g transform="translate(340.061905 177.399086)scale(0.2 -0.2)">
       <defs>
        <path id="CMR17-34" d="M 2150 4147 
C 2150 4281 2144 4288 2029 4288 
L 128 1254 
L 128 1088 
L 1779 1088 
L 1779 460 
C 1779 230 1766 166 1318 166 
L 1197 166 
L 1197 0 
C 1402 12 1747 12 1965 12 
C 2182 12 2528 12 2733 0 
L 2733 166 
L 2611 166 
C 2163 166 2150 230 2150 460 
L 2150 1088 
L 2803 1088 
L 2803 1254 
L 2150 1254 
L 2150 4147 
z
M 1798 3723 
L 1798 1254 
L 256 1254 
L 1798 3723 
z
" transform="scale(0.015625)"/>
       </defs>
       <use xlink:href="#CMR17-34" transform="scale(0.996264)"/>
      </g>
     </g>
    </g>
    <g id="text_6">
     <!-- $|\beta|$ -->
     <g transform="translate(198.894435 200.21868)scale(0.2 -0.2)">
      <defs>
       <path id="CMSY10-6a" d="M 1018 4569 
C 1018 4684 1018 4800 890 4800 
C 762 4800 762 4684 762 4569 
L 762 -1370 
C 762 -1485 762 -1600 890 -1600 
C 1018 -1600 1018 -1485 1018 -1370 
L 1018 4569 
z
" transform="scale(0.015625)"/>
       <path id="CMMI12-c" d="M 3622 3739 
C 3622 4131 3296 4544 2714 4544 
C 1888 4544 1363 3510 1197 2830 
L 186 -1152 
C 173 -1204 211 -1216 243 -1216 
C 288 -1216 320 -1210 326 -1178 
L 774 592 
C 838 231 1190 -64 1568 -64 
C 2483 -64 3347 657 3347 1618 
C 3347 1863 3290 2108 3155 2314 
C 3078 2437 2982 2527 2880 2599 
C 3341 2823 3622 3222 3622 3739 
z
M 2509 2605 
C 2406 2571 2304 2560 2182 2560 
C 2093 2560 2010 2553 1894 2588 
C 1958 2627 2054 2639 2189 2639 
C 2304 2639 2419 2627 2509 2605 
z
M 3290 3798 
C 3290 3438 3117 2915 2701 2684 
C 2579 2723 2413 2752 2272 2752 
C 2138 2752 1754 2765 1754 2582 
C 1754 2411 2106 2430 2214 2430 
C 2381 2430 2528 2469 2682 2514 
C 2886 2347 2976 2127 2976 1805 
C 2976 1431 2874 1128 2752 850 
C 2541 373 2042 64 1600 64 
C 1133 64 890 438 890 876 
C 890 934 890 1018 915 1115 
L 1331 2784 
C 1542 3641 2080 4413 2701 4413 
C 3162 4413 3290 4086 3290 3798 
z
" transform="scale(0.015625)"/>
      </defs>
      <use xlink:href="#CMSY10-6a" transform="scale(0.996264)"/>
      <use xlink:href="#CMMI12-c" transform="translate(27.674085 0)scale(0.996264)"/>
      <use xlink:href="#CMSY10-6a" transform="translate(88.2681 0)scale(0.996264)"/>
     </g>
    </g>
   </g>
   <g id="matplotlib.axis_2">
    <g id="ytick_1">
     <g id="line2d_6">
      <defs>
       <path id="m15e900e4e7" d="M 0 0 
L -6 0 
" style="stroke: #000000; stroke-width: 2"/>
      </defs>
      <g>
       <use xlink:href="#m15e900e4e7" x="76.346352" y="152.562089" style="stroke: #000000; stroke-width: 2"/>
      </g>
     </g>
     <g id="text_7">
      <!-- $\mathdefault{0.90}$ -->
      <g transform="translate(32.51263 159.480588)scale(0.2 -0.2)">
       <defs>
        <path id="CMMI12-3a" d="M 1178 307 
C 1178 492 1024 620 870 620 
C 685 620 557 467 557 313 
C 557 128 710 0 864 0 
C 1050 0 1178 153 1178 307 
z
" transform="scale(0.015625)"/>
        <path id="CMR17-39" d="M 2253 1871 
C 2253 448 1670 25 1190 25 
C 1043 25 685 43 538 281 
C 704 256 826 345 826 505 
C 826 678 685 736 595 736 
C 538 736 365 710 365 492 
C 365 68 742 -128 1203 -128 
C 1939 -128 2688 665 2688 2090 
C 2688 3857 1971 4224 1485 4224 
C 851 4224 243 3664 243 2800 
C 243 2000 762 1408 1414 1408 
C 1952 1408 2189 1910 2253 2122 
L 2253 1871 
z
M 1427 1510 
C 1254 1510 1011 1542 813 1929 
C 678 2181 678 2477 678 2793 
C 678 3174 678 3438 858 3722 
C 947 3857 1114 4076 1485 4076 
C 2240 4076 2240 2909 2240 2651 
C 2240 2193 2035 1510 1427 1510 
z
" transform="scale(0.015625)"/>
       </defs>
       <use xlink:href="#CMR17-30" transform="scale(0.996264)"/>
       <use xlink:href="#CMMI12-3a" transform="translate(45.690477 0)scale(0.996264)"/>
       <use xlink:href="#CMR17-39" transform="translate(72.787654 0)scale(0.996264)"/>
       <use xlink:href="#CMR17-30" transform="translate(118.478131 0)scale(0.996264)"/>
      </g>
     </g>
    </g>
    <g id="ytick_2">
     <g id="line2d_7">
      <g>
       <use xlink:href="#m15e900e4e7" x="76.346352" y="85.008503" style="stroke: #000000; stroke-width: 2"/>
      </g>
     </g>
     <g id="text_8">
      <!-- $\mathdefault{0.95}$ -->
      <g transform="translate(32.51263 91.927001)scale(0.2 -0.2)">
       <defs>
        <path id="CMR17-35" d="M 730 3750 
C 794 3724 1056 3641 1325 3641 
C 1920 3641 2246 3961 2432 4140 
C 2432 4191 2432 4224 2394 4224 
C 2387 4224 2374 4224 2323 4198 
C 2099 4102 1837 4032 1517 4032 
C 1325 4032 1037 4055 723 4191 
C 653 4224 640 4224 634 4224 
C 602 4224 595 4217 595 4090 
L 595 2231 
C 595 2113 595 2080 659 2080 
C 691 2080 704 2093 736 2139 
C 941 2435 1222 2560 1542 2560 
C 1766 2560 2246 2415 2246 1293 
C 2246 1087 2246 716 2054 422 
C 1894 159 1645 25 1370 25 
C 947 25 518 319 403 812 
C 429 806 480 793 506 793 
C 589 793 749 838 749 1036 
C 749 1209 627 1280 506 1280 
C 358 1280 262 1190 262 1011 
C 262 454 704 -128 1382 -128 
C 2042 -128 2669 441 2669 1267 
C 2669 2054 2170 2662 1549 2662 
C 1222 2662 947 2540 730 2304 
L 730 3750 
z
" transform="scale(0.015625)"/>
       </defs>
       <use xlink:href="#CMR17-30" transform="scale(0.996264)"/>
       <use xlink:href="#CMMI12-3a" transform="translate(45.690477 0)scale(0.996264)"/>
       <use xlink:href="#CMR17-39" transform="translate(72.787654 0)scale(0.996264)"/>
       <use xlink:href="#CMR17-35" transform="translate(118.478131 0)scale(0.996264)"/>
      </g>
     </g>
    </g>
    <g id="ytick_3">
     <g id="line2d_8">
      <g>
       <use xlink:href="#m15e900e4e7" x="76.346352" y="17.454917" style="stroke: #000000; stroke-width: 2"/>
      </g>
     </g>
     <g id="text_9">
      <!-- $\mathdefault{1.00}$ -->
      <g transform="translate(32.51263 24.373415)scale(0.2 -0.2)">
       <use xlink:href="#CMR17-31" transform="scale(0.996264)"/>
       <use xlink:href="#CMMI12-3a" transform="translate(45.690477 0)scale(0.996264)"/>
       <use xlink:href="#CMR17-30" transform="translate(72.787654 0)scale(0.996264)"/>
       <use xlink:href="#CMR17-30" transform="translate(118.478131 0)scale(0.996264)"/>
      </g>
     </g>
    </g>
    <g id="text_10">
     <!-- Cosine similarity -->
     <g transform="translate(24.636997 147.652001)rotate(-90)scale(0.2 -0.2)">
      <defs>
       <path id="CMSS17-43" d="M 3501 705 
C 3072 416 2874 332 2355 332 
C 1459 332 934 1304 934 2191 
C 934 3137 1472 4070 2381 4070 
C 2790 4070 3059 3954 3386 3748 
L 3475 4255 
C 3168 4409 2778 4480 2387 4480 
C 1158 4480 397 3343 397 2191 
C 397 924 1299 -77 2323 -77 
C 2874 -77 3066 -32 3539 268 
L 3501 705 
z
" transform="scale(0.015625)"/>
       <path id="CMSS17-6f" d="M 2829 1356 
C 2829 2175 2221 2816 1504 2816 
C 768 2816 173 2156 173 1356 
C 173 544 787 -64 1498 -64 
C 2227 -64 2829 563 2829 1356 
z
M 1504 339 
C 1050 339 659 710 659 1407 
C 659 2150 1114 2425 1498 2425 
C 1914 2425 2342 2124 2342 1407 
C 2342 684 1926 339 1504 339 
z
" transform="scale(0.015625)"/>
       <path id="CMSS17-73" d="M 2061 2623 
C 1683 2803 1389 2816 1197 2816 
C 742 2816 198 2655 198 2009 
C 198 1363 902 1222 1094 1183 
C 1389 1126 1715 1062 1715 742 
C 1715 339 1254 339 1171 339 
C 915 339 563 409 243 639 
L 166 211 
C 531 0 883 -64 1178 -64 
C 1965 -64 2163 416 2163 780 
C 2163 1094 1984 1305 1862 1401 
C 1651 1567 1574 1587 1050 1695 
C 960 1708 646 1779 646 2067 
C 646 2431 1050 2431 1139 2431 
C 1555 2431 1811 2303 1984 2207 
L 2061 2623 
z
" transform="scale(0.015625)"/>
       <path id="CMSS17-69" d="M 979 4224 
L 442 4224 
L 442 3686 
L 979 3686 
L 979 4224 
z
M 947 2752 
L 474 2752 
L 474 0 
L 947 0 
L 947 2752 
z
" transform="scale(0.015625)"/>
       <path id="CMSS17-6e" d="M 2618 1878 
C 2618 2283 2522 2816 1798 2816 
C 1389 2816 1120 2604 941 2386 
L 941 2783 
L 474 2783 
L 474 0 
L 960 0 
L 960 1556 
C 960 1962 1114 2425 1549 2425 
C 2112 2425 2131 2045 2131 1826 
L 2131 0 
L 2618 0 
L 2618 1878 
z
" transform="scale(0.015625)"/>
       <path id="CMSS17-65" d="M 2502 1375 
C 2502 1587 2490 2001 2285 2347 
C 2061 2713 1696 2816 1421 2816 
C 755 2816 192 2184 192 1363 
C 192 579 774 -64 1510 -64 
C 1798 -64 2150 19 2470 249 
C 2470 275 2458 414 2451 421 
C 2451 433 2432 629 2432 655 
C 2125 408 1773 326 1517 326 
C 1107 326 666 667 646 1375 
L 2502 1375 
z
M 698 1728 
C 781 2086 1062 2425 1421 2425 
C 1517 2425 1965 2412 2080 1728 
L 698 1728 
z
" transform="scale(0.015625)"/>
       <path id="CMSS17-6d" d="M 4288 1878 
C 4288 2309 4179 2816 3462 2816 
C 2982 2816 2694 2515 2566 2328 
C 2451 2668 2182 2816 1798 2816 
C 1363 2816 1088 2566 941 2386 
L 941 2783 
L 474 2783 
L 474 0 
L 960 0 
L 960 1556 
C 960 1936 1101 2425 1555 2425 
C 2138 2425 2138 2013 2138 1826 
L 2138 0 
L 2624 0 
L 2624 1556 
C 2624 1936 2765 2425 3219 2425 
C 3802 2425 3802 2013 3802 1826 
L 3802 0 
L 4288 0 
L 4288 1878 
z
" transform="scale(0.015625)"/>
       <path id="CMSS17-6c" d="M 947 4416 
L 474 4416 
L 474 0 
L 947 0 
L 947 4416 
z
" transform="scale(0.015625)"/>
       <path id="CMSS17-61" d="M 2406 1789 
C 2406 2399 1978 2816 1402 2816 
C 1120 2816 813 2764 461 2559 
L 499 2133 
C 659 2250 934 2438 1395 2438 
C 1722 2438 1920 2185 1920 1782 
L 1920 1536 
C 896 1504 256 1209 256 711 
C 256 452 416 -64 947 -64 
C 1043 -64 1562 -52 1933 224 
L 1933 -13 
L 2406 -13 
L 2406 1789 
z
M 1920 824 
C 1920 711 1920 559 1728 446 
C 1562 339 1350 326 1261 326 
C 941 326 723 503 723 723 
C 723 1165 1722 1209 1920 1216 
L 1920 824 
z
" transform="scale(0.015625)"/>
       <path id="CMSS17-72" d="M 954 1369 
C 954 1974 1395 2379 1958 2392 
L 1958 2816 
C 1549 2809 1165 2604 934 2270 
L 934 2783 
L 480 2783 
L 480 0 
L 954 0 
L 954 1369 
z
" transform="scale(0.015625)"/>
       <path id="CMSS17-74" d="M 1069 2380 
L 1901 2380 
L 1901 2752 
L 1069 2752 
L 1069 3520 
L 614 3520 
L 614 2752 
L 109 2752 
L 109 2380 
L 602 2380 
L 602 751 
C 602 384 685 -64 1107 -64 
C 1427 -64 1722 25 2003 172 
L 1901 551 
C 1747 416 1562 339 1363 339 
C 1082 339 1069 699 1069 860 
L 1069 2380 
z
" transform="scale(0.015625)"/>
       <path id="CMSS17-79" d="M 2675 2752 
L 2176 2752 
C 1632 1293 1446 701 1434 383 
L 1427 383 
C 1408 695 1126 1459 902 2006 
L 602 2752 
L 83 2752 
L 1216 14 
C 1146 -177 1043 -464 1011 -527 
C 870 -884 774 -884 672 -884 
C 646 -884 442 -877 211 -807 
L 250 -1229 
C 410 -1261 570 -1280 685 -1280 
C 845 -1280 1165 -1280 1459 -495 
L 2675 2752 
z
" transform="scale(0.015625)"/>
      </defs>
      <use xlink:href="#CMSS17-43" transform="scale(0.996264)"/>
      <use xlink:href="#CMSS17-6f" transform="translate(59.855772 0)scale(0.996264)"/>
      <use xlink:href="#CMSS17-73" transform="translate(106.699395 0)scale(0.996264)"/>
      <use xlink:href="#CMSS17-69" transform="translate(142.612937 0)scale(0.996264)"/>
      <use xlink:href="#CMSS17-6e" transform="translate(164.79366 0)scale(0.996264)"/>
      <use xlink:href="#CMSS17-65" transform="translate(212.998603 0)scale(0.996264)"/>
      <use xlink:href="#CMSS17-73" transform="translate(285.866538 0)scale(0.996264)"/>
      <use xlink:href="#CMSS17-69" transform="translate(321.78008 0)scale(0.996264)"/>
      <use xlink:href="#CMSS17-6d" transform="translate(343.960803 0)scale(0.996264)"/>
      <use xlink:href="#CMSS17-69" transform="translate(418.190058 0)scale(0.996264)"/>
      <use xlink:href="#CMSS17-6c" transform="translate(440.370781 0)scale(0.996264)"/>
      <use xlink:href="#CMSS17-61" transform="translate(462.551504 0)scale(0.996264)"/>
      <use xlink:href="#CMSS17-72" transform="translate(504.87097 0)scale(0.996264)"/>
      <use xlink:href="#CMSS17-69" transform="translate(536.780743 0)scale(0.996264)"/>
      <use xlink:href="#CMSS17-74" transform="translate(558.961466 0)scale(0.996264)"/>
      <use xlink:href="#CMSS17-79" transform="translate(590.190579 0)scale(0.996264)"/>
     </g>
    </g>
   </g>
   <g id="line2d_9">
    <path d="M 76.346352 17.454917 
L 344.630952 17.454917 
" clip-path="url(#pdb65fe8ca0)" style="fill: none; stroke: #bbbbbb; stroke-width: 1.5; stroke-linecap: square"/>
   </g>
   <g id="line2d_10">
    <path d="M 92.635095 217 
L 104.365667 97.182906 
L 118.039964 67.560132 
L 131.714267 46.73278 
L 145.38857 51.307859 
L 159.062865 55.507104 
L 172.737168 61.415601 
L 186.411471 73.121303 
L 200.085774 82.78025 
L 213.760077 89.973686 
L 227.434372 103.792338 
L 241.108667 111.476364 
L 254.782978 127.261803 
L 268.457273 139.005596 
L 282.131584 149.228254 
L 295.805879 162.271239 
L 309.480173 172.685157 
L 323.154484 185.595509 
L 336.828779 198.816868 
L 350.503106 210.137636 
L 359.037007 217 
" clip-path="url(#pdb65fe8ca0)" style="fill: none; stroke: #1f77b4; stroke-width: 2; stroke-linecap: square"/>
   </g>
   <g id="line2d_11">
    <path d="M 89.529589 217 
L 90.691365 124.588524 
L 104.365667 46.104403 
L 118.039964 30.38218 
L 131.714267 24.618959 
L 145.38857 23.161122 
L 159.062865 20.750855 
L 172.737168 19.964639 
L 186.411471 19.35567 
L 200.085774 19.206689 
L 213.760077 18.929987 
L 227.434372 19.216594 
L 241.108667 19.958921 
L 254.782978 21.50663 
L 268.457273 23.056272 
L 282.131584 25.054305 
L 295.805879 27.296184 
L 309.480173 30.263801 
L 323.154484 32.896976 
L 336.828779 35.378271 
L 350.503106 39.912843 
L 361 42.234353 
" clip-path="url(#pdb65fe8ca0)" style="fill: none; stroke: #ff7f0e; stroke-width: 2; stroke-linecap: square"/>
   </g>
   <g id="patch_3">
    <path d="M 76.346352 152.562089 
L 76.346352 16.103845 
" style="fill: none; stroke: #000000; stroke-width: 2; stroke-linejoin: miter; stroke-linecap: square"/>
   </g>
   <g id="patch_4">
    <path d="M 76.346352 152.562089 
L 344.630952 152.562089 
" style="fill: none; stroke: #000000; stroke-width: 2; stroke-linejoin: miter; stroke-linecap: square"/>
   </g>
   <g id="legend_1">
    <g id="patch_5">
     <path d="M 207.574111 113.460435 
L 335.530952 113.460435 
Q 338.130952 113.460435 338.130952 110.860435 
L 338.130952 57.805499 
Q 338.130952 55.205499 335.530952 55.205499 
L 207.574111 55.205499 
Q 204.974111 55.205499 204.974111 57.805499 
L 204.974111 110.860435 
Q 204.974111 113.460435 207.574111 113.460435 
L 207.574111 113.460435 
z
" style="fill: none; opacity: 0"/>
    </g>
    <g id="line2d_12">
     <path d="M 210.174111 64.955499 
L 223.174111 64.955499 
L 236.174111 64.955499 
" style="fill: none; stroke: #bbbbbb; stroke-width: 1.5; stroke-linecap: square"/>
    </g>
    <g id="text_11">
     <!-- True gradient -->
     <g transform="translate(246.574111 69.505499)scale(0.13 -0.13)">
      <defs>
       <path id="CMSS17-54" d="M 2317 3987 
L 2848 3987 
C 2925 3987 3002 3980 3078 3980 
L 3878 3980 
L 3878 4396 
L 218 4396 
L 218 3980 
L 1018 3980 
C 1094 3980 1171 3987 1248 3987 
L 1779 3987 
L 1779 0 
L 2317 0 
L 2317 3987 
z
" transform="scale(0.015625)"/>
       <path id="CMSS17-75" d="M 2618 2752 
L 2131 2752 
L 2131 976 
C 2131 500 1786 307 1421 307 
C 998 307 960 448 960 712 
L 960 2752 
L 474 2752 
L 474 680 
C 474 179 646 -64 1088 -64 
C 1306 -64 1798 -13 2144 307 
L 2144 -13 
L 2618 -13 
L 2618 2752 
z
" transform="scale(0.015625)"/>
       <path id="CMSS17-67" d="M 2848 2816 
C 2483 2809 2170 2739 1914 2617 
C 1702 2783 1485 2816 1338 2816 
C 781 2816 358 2356 358 1824 
C 358 1481 550 1222 563 1209 
C 448 1049 384 876 384 684 
C 384 460 474 300 544 211 
C 211 6 166 -308 166 -429 
C 166 -896 749 -1280 1498 -1280 
C 2253 -1280 2835 -896 2835 -423 
C 2835 460 1856 467 1587 467 
L 1069 467 
C 973 467 717 467 717 793 
C 717 921 774 1004 781 1011 
C 877 940 1075 832 1338 832 
C 1869 832 2310 1279 2310 1824 
C 2310 2128 2170 2349 2112 2425 
L 2131 2425 
C 2150 2425 2419 2444 2515 2444 
C 2720 2444 2739 2438 2918 2419 
L 2848 2816 
z
M 1338 1184 
C 1120 1184 813 1317 813 1824 
C 813 2375 1165 2463 1331 2463 
C 1549 2463 1856 2330 1856 1824 
C 1856 1272 1504 1184 1338 1184 
z
M 1581 0 
C 1734 0 2381 0 2381 -436 
C 2381 -711 1984 -928 1504 -928 
C 1018 -928 621 -717 621 -429 
C 621 -397 621 0 1062 0 
L 1581 0 
z
" transform="scale(0.015625)"/>
       <path id="CMSS17-64" d="M 2611 4416 
L 2138 4416 
L 2138 2495 
C 1939 2662 1613 2816 1254 2816 
C 672 2816 211 2179 211 1375 
C 211 572 666 -64 1235 -64 
C 1677 -64 1971 172 2125 307 
L 2125 -13 
L 2611 -13 
L 2611 4416 
z
M 2125 851 
C 2125 760 2125 663 1926 488 
C 1798 378 1645 326 1498 326 
C 1152 326 698 585 698 1369 
C 698 2185 1210 2425 1562 2425 
C 1798 2425 1990 2308 2125 2114 
L 2125 851 
z
" transform="scale(0.015625)"/>
      </defs>
      <use xlink:href="#CMSS17-54" transform="scale(0.996264)"/>
      <use xlink:href="#CMSS17-72" transform="translate(56.012199 0)scale(0.996264)"/>
      <use xlink:href="#CMSS17-75" transform="translate(87.921971 0)scale(0.996264)"/>
      <use xlink:href="#CMSS17-65" transform="translate(136.126914 0)scale(0.996264)"/>
      <use xlink:href="#CMSS17-67" transform="translate(208.994849 0)scale(0.996264)"/>
      <use xlink:href="#CMSS17-72" transform="translate(255.838473 0)scale(0.996264)"/>
      <use xlink:href="#CMSS17-61" transform="translate(287.748245 0)scale(0.996264)"/>
      <use xlink:href="#CMSS17-64" transform="translate(332.670166 0)scale(0.996264)"/>
      <use xlink:href="#CMSS17-69" transform="translate(380.875109 0)scale(0.996264)"/>
      <use xlink:href="#CMSS17-65" transform="translate(403.055832 0)scale(0.996264)"/>
      <use xlink:href="#CMSS17-6e" transform="translate(444.694654 0)scale(0.996264)"/>
      <use xlink:href="#CMSS17-74" transform="translate(492.899597 0)scale(0.996264)"/>
     </g>
    </g>
    <g id="line2d_13">
     <path d="M 210.174111 83.073811 
L 223.174111 83.073811 
L 236.174111 83.073811 
" style="fill: none; stroke: #1f77b4; stroke-width: 2; stroke-linecap: square"/>
    </g>
    <g id="text_12">
     <!-- Classic EP -->
     <g transform="translate(246.574111 87.623811)scale(0.13 -0.13)">
      <defs>
       <path id="CMSS17-63" d="M 2464 2540 
C 2464 2585 2170 2713 2093 2739 
C 1882 2816 1613 2816 1542 2816 
C 710 2816 211 2092 211 1363 
C 211 595 768 -64 1517 -64 
C 1946 -64 2253 76 2502 243 
L 2464 665 
C 2189 454 1869 339 1523 339 
C 1024 339 698 774 698 1369 
C 698 1830 909 2412 1549 2412 
C 1901 2412 2099 2342 2394 2143 
L 2464 2540 
z
" transform="scale(0.015625)"/>
       <path id="CMSS17-45" d="M 1958 435 
C 1446 435 1216 435 1101 428 
L 1101 2105 
L 3085 2105 
L 3085 2496 
L 1101 2496 
L 1101 3993 
L 1926 3993 
C 2003 3993 2080 3987 2157 3987 
L 3251 3987 
L 3251 4403 
L 563 4403 
L 563 0 
L 3334 0 
L 3334 441 
L 1958 435 
z
" transform="scale(0.015625)"/>
       <path id="CMSS17-50" d="M 2106 1856 
C 2874 1856 3501 2447 3501 3139 
C 3501 3818 2899 4416 2067 4416 
L 570 4416 
L 570 0 
L 1107 0 
L 1107 1856 
L 2106 1856 
z
M 1926 4057 
C 2669 4057 2995 3598 2995 3139 
C 2995 2711 2694 2227 1926 2227 
L 1094 2227 
L 1094 4057 
L 1926 4057 
z
" transform="scale(0.015625)"/>
      </defs>
      <use xlink:href="#CMSS17-43" transform="scale(0.996264)"/>
      <use xlink:href="#CMSS17-6c" transform="translate(59.855772 0)scale(0.996264)"/>
      <use xlink:href="#CMSS17-61" transform="translate(82.036495 0)scale(0.996264)"/>
      <use xlink:href="#CMSS17-73" transform="translate(126.958415 0)scale(0.996264)"/>
      <use xlink:href="#CMSS17-73" transform="translate(162.871957 0)scale(0.996264)"/>
      <use xlink:href="#CMSS17-69" transform="translate(198.785499 0)scale(0.996264)"/>
      <use xlink:href="#CMSS17-63" transform="translate(220.966222 0)scale(0.996264)"/>
      <use xlink:href="#CMSS17-45" transform="translate(293.834157 0)scale(0.996264)"/>
      <use xlink:href="#CMSS17-50" transform="translate(349.72617 0)scale(0.996264)"/>
     </g>
    </g>
    <g id="line2d_14">
     <path d="M 210.174111 101.192123 
L 223.174111 101.192123 
L 236.174111 101.192123 
" style="fill: none; stroke: #ff7f0e; stroke-width: 2; stroke-linecap: square"/>
    </g>
    <g id="text_13">
     <!-- Holomorphic EP -->
     <g transform="translate(246.574111 105.742123)scale(0.13 -0.13)">
      <defs>
       <path id="CMSS17-48" d="M 3674 4416 
L 3136 4416 
L 3136 2496 
L 1101 2496 
L 1101 4416 
L 563 4416 
L 563 0 
L 1101 0 
L 1101 2105 
L 3136 2105 
L 3136 0 
L 3674 0 
L 3674 4416 
z
" transform="scale(0.015625)"/>
       <path id="CMSS17-70" d="M 966 275 
C 1178 70 1466 -64 1773 -64 
C 2368 -64 2880 553 2880 1382 
C 2880 2147 2496 2816 1946 2816 
C 1626 2816 1242 2700 954 2470 
L 954 2764 
L 480 2764 
L 480 -1280 
L 966 -1280 
L 966 275 
z
M 966 2088 
C 1018 2166 1235 2412 1587 2412 
C 2035 2412 2394 1946 2394 1382 
C 2394 741 1958 326 1530 326 
C 1402 326 1267 358 1139 468 
C 966 624 966 721 966 812 
L 966 2088 
z
" transform="scale(0.015625)"/>
       <path id="CMSS17-68" d="M 2618 1878 
C 2618 2283 2522 2816 1798 2816 
C 1395 2816 1133 2617 947 2399 
L 947 4416 
L 474 4416 
L 474 0 
L 960 0 
L 960 1556 
C 960 1962 1114 2425 1549 2425 
C 2112 2425 2131 2045 2131 1826 
L 2131 0 
L 2618 0 
L 2618 1878 
z
" transform="scale(0.015625)"/>
      </defs>
      <use xlink:href="#CMSS17-48" transform="scale(0.996264)"/>
      <use xlink:href="#CMSS17-6f" transform="translate(66.061519 0)scale(0.996264)"/>
      <use xlink:href="#CMSS17-6c" transform="translate(112.905143 0)scale(0.996264)"/>
      <use xlink:href="#CMSS17-6f" transform="translate(135.085866 0)scale(0.996264)"/>
      <use xlink:href="#CMSS17-6d" transform="translate(181.929489 0)scale(0.996264)"/>
      <use xlink:href="#CMSS17-6f" transform="translate(256.158744 0)scale(0.996264)"/>
      <use xlink:href="#CMSS17-72" transform="translate(300.399913 0)scale(0.996264)"/>
      <use xlink:href="#CMSS17-70" transform="translate(332.309686 0)scale(0.996264)"/>
      <use xlink:href="#CMSS17-68" transform="translate(380.514629 0)scale(0.996264)"/>
      <use xlink:href="#CMSS17-69" transform="translate(428.719572 0)scale(0.996264)"/>
      <use xlink:href="#CMSS17-63" transform="translate(450.900295 0)scale(0.996264)"/>
      <use xlink:href="#CMSS17-45" transform="translate(523.76823 0)scale(0.996264)"/>
      <use xlink:href="#CMSS17-50" transform="translate(579.660243 0)scale(0.996264)"/>
     </g>
    </g>
   </g>
  </g>
 </g>
 <defs>
  <clipPath id="pdb65fe8ca0">
   <rect x="76.346352" y="16.103845" width="268.2846" height="136.458245"/>
  </clipPath>
 </defs>
</svg>
